<?xml version="1.0" encoding="utf-8"?>
<svg version="1.1" id="レイヤー_1" xmlns="http://www.w3.org/2000/svg" xmlns:xlink="http://www.w3.org/1999/xlink" x="0px"
     y="0px" viewBox="0 0 110 36" style="enable-background:new 0 0 110 36;" xml:space="preserve">
<style type="text/css">
    .st0{fill:#D8092F;}
    .st1{fill:#FFFFFF;}
    .st2{fill:#C8161E;}
    .st3{fill:#221815;}
    .st4{fill:none;}
</style>
<g>
    <g>
        <path class="st0" d="M102.4,3.9C102.3,3.9,102.3,3.9,102.4,3.9C102.3,3.9,102.3,3.9,102.4,3.9C102.3,3.9,102.3,3.9,102.4,3.9z"/>
        <path class="st0" d="M102.6,3.9c0,0-0.1,0-0.2,0C102.5,3.9,102.7,3.9,102.6,3.9z"/>
        <path class="st0" d="M100.9,14.6C100.8,14.6,100.8,14.6,100.9,14.6h-0.3v-0.1l0.2-0.1c0,0,0,0,0.1,0c0,0,0.1,0,0.1-0.1
            c0,0,0-0.1-0.1-0.1c0,0-0.1,0-0.1,0.1l-0.2,0.1c0,0,0-0.1-0.1-0.1l0.2-0.3h0c0,0,0.1,0,0.1-0.1c0,0,0-0.1-0.1-0.1
            c-0.1,0-0.1,0-0.1,0.1c0,0,0,0,0,0l-0.2,0.3c0,0-0.1,0-0.1,0l0-0.3c0,0,0.1,0,0.1-0.1c0,0,0-0.1-0.1-0.1c-0.1,0-0.1,0-0.1,0.1
            c0,0,0,0.1,0,0.1l0,0.3c0,0-0.1,0-0.1,0l-0.2-0.2c0,0,0,0,0,0c0,0,0-0.1-0.1-0.1c0,0-0.1,0-0.1,0.1c0,0,0,0.1,0.1,0.1c0,0,0,0,0,0
            l0.2,0.2c0,0-0.1,0.1-0.1,0.1l-0.3-0.1v0c0,0,0-0.1-0.1-0.1c0,0-0.1,0-0.1,0.1c0,0,0,0.1,0.1,0.1c0,0,0,0,0,0l0.3,0.1v0
            c0,0,0,0,0,0l-0.3,0.1c0,0,0,0-0.1,0c0,0-0.1,0-0.1,0.1c0,0,0,0.1,0.1,0.1c0,0,0.1,0,0.1-0.1c0,0,0,0,0,0l0.2-0.1
            c0,0,0,0.1,0.1,0.1l-0.1,0.2c0,0,0,0,0,0c0,0-0.1,0-0.1,0.1c0,0,0,0.1,0.1,0.1c0.1,0,0.1,0,0.1-0.1c0,0,0,0,0,0l0.1-0.2
            c0,0,0.1,0,0.2,0l0,0.2c0,0,0,0,0,0.1c0,0,0,0.1,0.1,0.1c0,0,0.1,0,0.1-0.1c0,0,0-0.1-0.1-0.1l0-0.2c0.1,0,0.1,0,0.1-0.1l0.2,0.2
            c0,0,0,0,0,0c0,0,0,0.1,0.1,0.1c0,0,0.1,0,0.1-0.1c0-0.1,0-0.1-0.1-0.1c0,0,0,0,0,0l-0.2-0.2c0,0,0,0,0,0L100.9,14.6
            c-0.1,0.1,0,0.2,0,0.2C100.9,14.7,101,14.7,100.9,14.6C100.9,14.6,100.9,14.6,100.9,14.6z M100.9,14.6
            C100.8,14.6,100.8,14.6,100.9,14.6h-0.3v-0.1l0.2-0.1c0,0,0,0,0.1,0c0,0,0.1,0,0.1-0.1c0,0,0-0.1-0.1-0.1c0,0-0.1,0-0.1,0.1
            l-0.2,0.1c0,0,0-0.1-0.1-0.1l0.2-0.3h0c0,0,0.1,0,0.1-0.1c0,0,0-0.1-0.1-0.1c-0.1,0-0.1,0-0.1,0.1c0,0,0,0,0,0l-0.2,0.3
            c0,0-0.1,0-0.1,0l0-0.3c0,0,0.1,0,0.1-0.1c0,0,0-0.1-0.1-0.1c-0.1,0-0.1,0-0.1,0.1c0,0,0,0.1,0,0.1l0,0.3c0,0-0.1,0-0.1,0
            l-0.2-0.2c0,0,0,0,0,0c0,0,0-0.1-0.1-0.1c0,0-0.1,0-0.1,0.1c0,0,0,0.1,0.1,0.1c0,0,0,0,0,0l0.2,0.2c0,0-0.1,0.1-0.1,0.1l-0.3-0.1
            v0c0,0,0-0.1-0.1-0.1c0,0-0.1,0-0.1,0.1c0,0,0,0.1,0.1,0.1c0,0,0,0,0,0l0.3,0.1v0c0,0,0,0,0,0l-0.3,0.1c0,0,0,0-0.1,0
            c0,0-0.1,0-0.1,0.1c0,0,0,0.1,0.1,0.1c0,0,0.1,0,0.1-0.1c0,0,0,0,0,0l0.2-0.1c0,0,0,0.1,0.1,0.1l-0.1,0.2c0,0,0,0,0,0
            c0,0-0.1,0-0.1,0.1c0,0,0,0.1,0.1,0.1c0.1,0,0.1,0,0.1-0.1c0,0,0,0,0,0l0.1-0.2c0,0,0.1,0,0.2,0l0,0.2c0,0,0,0,0,0.1
            c0,0,0,0.1,0.1,0.1c0,0,0.1,0,0.1-0.1c0,0,0-0.1-0.1-0.1l0-0.2c0.1,0,0.1,0,0.1-0.1l0.2,0.2c0,0,0,0,0,0c0,0,0,0.1,0.1,0.1
            c0,0,0.1,0,0.1-0.1c0-0.1,0-0.1-0.1-0.1c0,0,0,0,0,0l-0.2-0.2c0,0,0,0,0,0L100.9,14.6c-0.1,0.1,0,0.2,0,0.2
            C100.9,14.7,101,14.7,100.9,14.6C100.9,14.6,100.9,14.6,100.9,14.6z M107.2,16.2c0.2-1.4,0.5-2.8,0.2-4.3c0-0.3,0-0.6,0.1-0.8
            c0-0.5-0.2-0.2-0.3-0.6l0.2-0.1c-0.3-0.4,0-0.8-0.3-1.2c-0.1,0-0.2-0.2-0.2-0.3c0.2-0.1-0.2-0.5,0-0.5h0c0-0.1-0.1-0.1-0.1-0.3
            c-0.1-0.1-0.5-0.4-0.9-0.8c-0.2-0.2-0.4-0.3-0.6-0.4c-0.2-0.1-0.3-0.2-0.4-0.2l0-0.1c-0.2-0.2-0.4-0.2-0.3,0l-0.2-0.3l0,0
            l-0.2-0.2c0-0.1,0-0.2,0.2-0.2c-0.2-0.1-0.4-0.2-0.5-0.4c0.3,0.5,0.5,1.1,0.6,1.7c-0.2-0.1-0.3-0.5-0.5-0.7c0-0.3-0.3-0.8-0.6-1.2
            c-0.1-0.1-0.3,0.1-0.4-0.2c0-0.2-0.2-0.2-0.2-0.4c0.2,0.1,0.4,0.2,0.5,0.4c0.1-0.2-0.3-0.5-0.4-0.6c-0.1,0-0.4-0.3-0.6-0.5
            c0.1-0.1,0.1-0.2,0-0.2c0,0-0.1-0.1-0.1-0.2c-0.1-0.1-0.3-0.1-0.3,0c0,0,0,0.1,0,0.1c-0.1,0-0.1,0-0.2,0c-0.4-0.1-0.8-0.1-0.7-0.1
            c0,0,0,0.1,0,0.1c0,0,0,0,0,0c-0.1,0-0.1,0.1-0.1,0.1l0.1,0c0.3,0.2,0,0.4-0.3,0.6c-0.3,0.2-0.6,0.4-0.3,0.7
            c-0.1-0.4,0.2-0.2,0.6,0c0,0.1,0,0.3,0.2,0.5c0.2,0.1,0.2,0,0.2,0c0.1,0.1,0.2,0.3,0.1,0.4c0.2,0,0.1,0.3,0.3,0.4
            c0.2,0.1,0-0.1,0.2,0c0.2,0.2,0.4,0.5,0.5,0.7c0,0.1,0,0.3-0.1,0.4c0,0-0.1-0.1-0.1-0.1c0,0,0.1-0.1-0.1-0.2c0,0,0,0,0,0.1
            c-0.7-0.7-1.4-1.4-2.3-1.9c-1.1-0.7-2.4-1.2-3.6-1.4c0,0,0.1,0,0.1,0c0.5-0.1,0.9-0.1,1.2-0.3c0.5,0.1,0.9,0.2,1.3,0.2
            c0.2,0,0.4,0,0.6,0.1c0.2,0.1,0.4,0.1,0.7,0.2c-0.1-0.2,0.2-0.1,0.5-0.1c0.2,0,0.4,0.1,0.3-0.1c-0.5-0.7-0.7-0.4-1.1-1l0,0.1
            c-2.5-1.7-5.8-2.3-8.9-1.6c-0.5,0.2-1,0.4-1.5,0.6c-0.2,0.1-0.5,0.2-0.8,0.3l-0.7,0.4c-0.5,0.2-1,0.6-1.5,0.8
            c-0.4,0.3-0.9,0.7-1.3,1c-0.4,0.4-0.8,0.9-1.2,1.4c-0.4,0.5-0.7,1-1,1.5c-0.3,0.5-0.5,1-0.7,1.5c-0.2,0.5-0.4,1-0.4,1.5
            c-0.1,0.5-0.4,0.7-0.6,1.1c-0.1,0.5-0.2,0.9-0.2,1.5c0,0.2,0,0.5-0.1,0.8c0,0.3,0,0.5,0,0.8c0,1,0.2,2.1,0.4,3.1
            c0.2,0.5,0.2,1,0.3,1.4c0.1,0.5,0.2,0.9,0.5,1.4c0.1,0,0.1,0.1,0.2,0.2c-0.1,0.1,0.5,1.1,1.4,2c0.2,0.2,0.3,0.3,0.5,0.5
            c0.1,0.1,0.2,0.2,0.4,0.3c1.1,0.9,2.2,1.5,2.3,1.6c0.1,0,0.2,0.1,0.3,0.1c0.4,0.3,0.9,0.6,1.3,1c0.5,0.3,0.9,0.6,1.4,0.9
            c0.2,0.1,0.5,0.2,0.7,0.4c0.3,0.1,0.5,0.2,0.8,0.3c0.5,0.2,1,0.2,1.5,0.3c0.4-0.1,0.9-0.3,1.2-0.5c0.3,0.2,0.4-0.1,0.8-0.1
            c0.5,0.3,1,0.4,1.2,0.3c0.2,0,0.2-0.2-0.1-0.3c0.8-0.2,1.7-0.4,2.3-0.7c0.3-0.2,0.6-0.3,0.9-0.5c0.1-0.1,0.2-0.1,0.3-0.1
            c0,0,0,0,0,0h0.1c0.1,0,0.1,0,0.2,0c0,0,0,0,0.1,0c0.5-0.3,0.5-0.3,0.8-0.4h0c0.1,0,0.2-0.1,0.4-0.2c0.2,0,0.5-0.3,0.8-0.7
            c0.2-0.2,0.3-0.4,0.5-0.6c0.1-0.2,0.2-0.3,0.3-0.3l-0.1,0.1c0.7-0.6,1.5-0.7,2.1-1.5c0.9-1,1.5-2.2,2-3.5c0.4-1.3,0.7-2.6,0.8-3.8
            C107.3,15.6,107.6,16.2,107.2,16.2z M101.1,4.4c-0.1,0,0-0.1,0.1-0.1C101.2,4.3,101.2,4.4,101.1,4.4z M102,4.2L102,4.2
            c0.1-0.1-0.2-0.3-0.4-0.4c0,0.1,0,0.1,0,0.1c-0.1,0-0.1,0-0.2,0c0,0,0,0-0.1,0l0,0c-0.1,0-0.1,0-0.2-0.1c0,0,0-0.1,0-0.1
            c0,0,0.1,0,0.1,0.1c0-0.1,0.3,0,0.7,0c0.1,0.1,0.3,0.3,0.2,0.4h0.1c0,0,0,0.1,0,0.1C102.2,4.3,102.1,4.3,102,4.2z M95.1,7.7
            c0,0-0.5-0.8,0.4-1.8l0.3,0.3L96,6c0,0,0.9,0.5,0.8,1.5c0,0,1-0.8,1.8,0l-0.3,0.4L98.8,8c0,0,0.1,0.8-1,1c0,0,0.8,0.4,0.8,1.4
            l-0.5,0l0,0.5c0,0-1.2,0.2-1.7-0.9c0,0-0.1,1.3-1.1,1.4L95,11l-0.5,0.1c0,0-0.5-1.3,0.5-1.8c-0.2,0.1-1,0.3-1.5-0.5l0.4-0.3
            l-0.4-0.3C93.4,8.2,94,7.3,95.1,7.7z M101.3,14.7c0,0,0.6,0.3,0.5,0.9l-0.3,0V16c0,0-0.8,0.1-1.1-0.6c0,0-0.1,0.8-0.8,0.9L99.5,16
            l-0.3,0.1c0,0-0.3-0.9,0.3-1.2c-0.1,0-0.6,0.2-1-0.3l0.3-0.2l-0.3-0.2c0,0,0.3-0.6,1.1-0.4c0,0-0.3-0.5,0.3-1.1l0.2,0.2l0.2-0.2
            c0,0,0.6,0.3,0.5,1c0,0,0.6-0.5,1.2,0l-0.2,0.2L102,14C102,14,102,14.5,101.3,14.7z M100.9,14.6C100.8,14.6,100.8,14.6,100.9,14.6
            h-0.3v-0.1l0.2-0.1c0,0,0,0,0.1,0c0,0,0.1,0,0.1-0.1c0,0,0-0.1-0.1-0.1c0,0-0.1,0-0.1,0.1l-0.2,0.1c0,0,0-0.1-0.1-0.1l0.2-0.3h0
            c0,0,0.1,0,0.1-0.1c0,0,0-0.1-0.1-0.1c-0.1,0-0.1,0-0.1,0.1c0,0,0,0,0,0l-0.2,0.3c0,0-0.1,0-0.1,0l0-0.3c0,0,0.1,0,0.1-0.1
            c0,0,0-0.1-0.1-0.1c-0.1,0-0.1,0-0.1,0.1c0,0,0,0.1,0,0.1l0,0.3c0,0-0.1,0-0.1,0l-0.2-0.2c0,0,0,0,0,0c0,0,0-0.1-0.1-0.1
            c0,0-0.1,0-0.1,0.1c0,0,0,0.1,0.1,0.1c0,0,0,0,0,0l0.2,0.2c0,0-0.1,0.1-0.1,0.1l-0.3-0.1v0c0,0,0-0.1-0.1-0.1c0,0-0.1,0-0.1,0.1
            c0,0,0,0.1,0.1,0.1c0,0,0,0,0,0l0.3,0.1v0c0,0,0,0,0,0l-0.3,0.1c0,0,0,0-0.1,0c0,0-0.1,0-0.1,0.1c0,0,0,0.1,0.1,0.1
            c0,0,0.1,0,0.1-0.1c0,0,0,0,0,0l0.2-0.1c0,0,0,0.1,0.1,0.1l-0.1,0.2c0,0,0,0,0,0c0,0-0.1,0-0.1,0.1c0,0,0,0.1,0.1,0.1
            c0.1,0,0.1,0,0.1-0.1c0,0,0,0,0,0l0.1-0.2c0,0,0.1,0,0.2,0l0,0.2c0,0,0,0,0,0.1c0,0,0,0.1,0.1,0.1c0,0,0.1,0,0.1-0.1
            c0,0,0-0.1-0.1-0.1l0-0.2c0.1,0,0.1,0,0.1-0.1l0.2,0.2c0,0,0,0,0,0c0,0,0,0.1,0.1,0.1c0,0,0.1,0,0.1-0.1c0-0.1,0-0.1-0.1-0.1
            c0,0,0,0,0,0l-0.2-0.2c0,0,0,0,0,0L100.9,14.6c-0.1,0.1,0,0.2,0,0.2C100.9,14.7,101,14.7,100.9,14.6
            C100.9,14.6,100.9,14.6,100.9,14.6z M95.2,8.5C95.3,8.5,95.3,8.5,95.2,8.5L95.2,8.5l0.5,0.1c0,0,0,0,0,0c0,0,0,0,0,0l-0.3,0.2
            c0,0,0,0-0.1,0c-0.1,0-0.1,0.1-0.1,0.1c0,0.1,0,0.1,0.1,0.1c0.1,0,0.1-0.1,0.1-0.1l0.3-0.2c0,0.1,0.1,0.1,0.1,0.2l-0.2,0.3
            c0,0,0,0,0,0c-0.1,0-0.1,0.1-0.1,0.1c0,0.1,0.1,0.1,0.1,0.1c0.1,0,0.1-0.1,0.1-0.1c0,0,0,0,0-0.1L95.9,9c0.1,0,0.1,0,0.2,0l0,0.3
            c0,0-0.1,0.1-0.1,0.1c0,0.1,0.1,0.1,0.1,0.1c0.1,0,0.1-0.1,0.1-0.1c0,0,0-0.1-0.1-0.1l0-0.4c0.1,0,0.1,0,0.2-0.1l0.2,0.3
            c0,0,0,0,0,0.1c0,0.1,0.1,0.1,0.1,0.1s0.1-0.1,0.1-0.1s-0.1-0.1-0.1-0.1c0,0,0,0,0,0l-0.2-0.3c0,0,0,0,0-0.1l0.4,0.1
            C96.9,9,96.9,9,97,9s0.1-0.1,0.1-0.1c0-0.1-0.1-0.1-0.1-0.1c0,0-0.1,0-0.1,0.1l-0.4-0.1V8.6l0.3-0.2c0,0,0,0,0.1,0
            C97,8.4,97,8.4,97,8.3c0-0.1,0-0.1-0.1-0.1c-0.1,0-0.1,0.1-0.1,0.1l-0.3,0.2c0-0.1-0.1-0.1-0.1-0.2L96.5,8h0c0.1,0,0.1,0,0.1-0.1
            c0-0.1-0.1-0.1-0.1-0.1c-0.1,0-0.1,0.1-0.1,0.1c0,0,0,0,0,0.1l-0.2,0.4c0,0-0.1,0-0.2,0V7.9c0,0,0.1-0.1,0.1-0.1
            c0-0.1-0.1-0.1-0.1-0.1c-0.1,0-0.1,0.1-0.1,0.1c0,0,0,0.1,0.1,0.1v0.4c0,0-0.1,0-0.1,0l-0.2-0.3c0,0,0,0,0-0.1
            c0-0.1-0.1-0.1-0.1-0.1c-0.1,0-0.1,0.1-0.1,0.1c0,0.1,0,0.1,0.1,0.1c0,0,0,0,0,0l0.2,0.3c-0.1,0-0.1,0.1-0.1,0.2l-0.4-0.1
            c0,0,0,0,0,0c0-0.1-0.1-0.1-0.1-0.1c-0.1,0-0.1,0.1-0.1,0.1C95.1,8.5,95.2,8.5,95.2,8.5z"/>
        <path class="st0" d="M102.1,4.2C102.1,4.2,102.1,4.2,102.1,4.2C102,4.2,102.1,4.3,102.1,4.2C102.1,4.3,102.1,4.2,102.1,4.2z"/>
    </g>
    <path class="st1" d="M97.1,8.9C97.1,8.9,97,9,97,9s-0.1,0-0.1-0.1l-0.4-0.1c0,0,0,0,0,0.1l0.2,0.3c0,0,0,0,0,0c0.1,0,0.1,0,0.1,0.1
        s0,0.1-0.1,0.1s-0.1,0-0.1-0.1c0,0,0,0,0-0.1L96.4,9c0,0-0.1,0.1-0.2,0.1l0,0.4c0,0,0.1,0,0.1,0.1c0,0.1,0,0.1-0.1,0.1
        c-0.1,0-0.1,0-0.1-0.1c0,0,0-0.1,0.1-0.1l0-0.3c-0.1,0-0.1,0-0.2,0l-0.2,0.3c0,0,0,0,0,0.1c0,0.1,0,0.1-0.1,0.1
        c-0.1,0-0.1,0-0.1-0.1c0,0,0-0.1,0.1-0.1c0,0,0,0,0,0L95.8,9c-0.1,0-0.1-0.1-0.1-0.2L95.4,9c0,0.1,0,0.1-0.1,0.1
        c-0.1,0-0.1,0-0.1-0.1c0-0.1,0-0.1,0.1-0.1c0,0,0.1,0,0.1,0l0.3-0.2c0,0,0,0,0,0c0,0,0,0,0,0l-0.4-0.2v0c0,0,0,0-0.1,0
        c-0.1,0-0.1,0-0.1-0.1c0-0.1,0-0.1,0.1-0.1c0.1,0,0.1,0,0.1,0.1c0,0,0,0,0,0l0.4,0.1c0-0.1,0.1-0.1,0.1-0.2l-0.2-0.3c0,0,0,0,0,0
        c-0.1,0-0.1,0-0.1-0.1c0-0.1,0-0.1,0.1-0.1c0.1,0,0.1,0,0.1,0.1c0,0,0,0,0,0.1l0.2,0.3c0,0,0.1,0,0.1,0V7.9c0,0-0.1-0.1-0.1-0.1
        c0-0.1,0-0.1,0.1-0.1c0.1,0,0.1,0,0.1,0.1c0,0.1,0,0.1-0.1,0.1v0.4c0.1,0,0.1,0,0.2,0L96.5,8c0,0,0,0,0-0.1c0-0.1,0-0.1,0.1-0.1
        c0.1,0,0.1,0,0.1,0.1c0,0.1,0,0.1-0.1,0.1h0l-0.2,0.4c0,0,0.1,0.1,0.1,0.2l0.3-0.2c0-0.1,0-0.1,0.1-0.1c0.1,0,0.1,0,0.1,0.1
        c0,0.1,0,0.1-0.1,0.1c0,0-0.1,0-0.1,0l-0.3,0.2v0.2l0.4,0.1c0,0,0-0.1,0.1-0.1C97,8.8,97.1,8.8,97.1,8.9z"/>
    <path class="st2" d="M97.1,8.9C97.1,8.9,97,9,97,9s-0.1,0-0.1-0.1l-0.4-0.1c0,0,0,0,0,0.1l0.2,0.3c0,0,0,0,0,0c0.1,0,0.1,0,0.1,0.1
        s0,0.1-0.1,0.1s-0.1,0-0.1-0.1c0,0,0,0,0-0.1L96.4,9c0,0-0.1,0.1-0.2,0.1l0,0.4c0,0,0.1,0,0.1,0.1c0,0.1,0,0.1-0.1,0.1
        c-0.1,0-0.1,0-0.1-0.1c0,0,0-0.1,0.1-0.1l0-0.3c-0.1,0-0.1,0-0.2,0l-0.2,0.3c0,0,0,0,0,0.1c0,0.1,0,0.1-0.1,0.1
        c-0.1,0-0.1,0-0.1-0.1c0,0,0-0.1,0.1-0.1c0,0,0,0,0,0L95.8,9c-0.1,0-0.1-0.1-0.1-0.2L95.4,9c0,0.1,0,0.1-0.1,0.1
        c-0.1,0-0.1,0-0.1-0.1c0-0.1,0-0.1,0.1-0.1c0,0,0.1,0,0.1,0l0.3-0.2c0,0,0,0,0,0c0,0,0,0,0,0l-0.4-0.2v0c0,0,0,0-0.1,0
        c-0.1,0-0.1,0-0.1-0.1c0-0.1,0-0.1,0.1-0.1c0.1,0,0.1,0,0.1,0.1c0,0,0,0,0,0l0.4,0.1c0-0.1,0.1-0.1,0.1-0.2l-0.2-0.3c0,0,0,0,0,0
        c-0.1,0-0.1,0-0.1-0.1c0-0.1,0-0.1,0.1-0.1c0.1,0,0.1,0,0.1,0.1c0,0,0,0,0,0.1l0.2,0.3c0,0,0.1,0,0.1,0V7.9c0,0-0.1-0.1-0.1-0.1
        c0-0.1,0-0.1,0.1-0.1c0.1,0,0.1,0,0.1,0.1c0,0.1,0,0.1-0.1,0.1v0.4c0.1,0,0.1,0,0.2,0L96.5,8c0,0,0,0,0-0.1c0-0.1,0-0.1,0.1-0.1
        c0.1,0,0.1,0,0.1,0.1c0,0.1,0,0.1-0.1,0.1h0l-0.2,0.4c0,0,0.1,0.1,0.1,0.2l0.3-0.2c0-0.1,0-0.1,0.1-0.1c0.1,0,0.1,0,0.1,0.1
        c0,0.1,0,0.1-0.1,0.1c0,0-0.1,0-0.1,0l-0.3,0.2v0.2l0.4,0.1c0,0,0-0.1,0.1-0.1C97,8.8,97.1,8.8,97.1,8.9z"/>
    <path class="st1" d="M100.9,14.6C101,14.7,100.9,14.7,100.9,14.6c-0.1,0.1-0.2,0.1-0.2,0l-0.3,0c0,0,0,0,0,0l0.2,0.2c0,0,0,0,0,0
        c0,0,0.1,0,0.1,0.1c0,0,0,0.1-0.1,0.1c0,0-0.1,0-0.1-0.1c0,0,0,0,0,0l-0.2-0.2c0,0-0.1,0.1-0.1,0.1l0,0.2c0,0,0.1,0,0.1,0.1
        c0,0,0,0.1-0.1,0.1c0,0-0.1,0-0.1-0.1c0,0,0-0.1,0-0.1l0-0.2c-0.1,0-0.1,0-0.2,0L100,15c0,0,0,0,0,0c0,0,0,0.1-0.1,0.1
        c0,0-0.1,0-0.1-0.1c0-0.1,0-0.1,0.1-0.1c0,0,0,0,0,0l0.1-0.2c0,0-0.1-0.1-0.1-0.1l-0.2,0.1c0,0,0,0,0,0c0,0,0,0.1-0.1,0.1
        c0,0-0.1,0-0.1-0.1c0,0,0-0.1,0.1-0.1c0,0,0,0,0.1,0l0.3-0.1c0,0,0,0,0,0v0l-0.3-0.1c0,0,0,0,0,0c0,0-0.1,0-0.1-0.1
        c0,0,0-0.1,0.1-0.1c0,0,0.1,0,0.1,0.1v0l0.3,0.1c0,0,0.1-0.1,0.1-0.1l-0.2-0.2c0,0,0,0,0,0c0,0-0.1,0-0.1-0.1c0-0.1,0-0.1,0.1-0.1
        c0,0,0.1,0,0.1,0.1c0,0,0,0,0,0l0.2,0.2c0,0,0.1,0,0.1,0l0-0.3c0,0,0,0,0-0.1c0,0,0-0.1,0.1-0.1c0,0,0.1,0,0.1,0.1
        c0,0,0,0.1-0.1,0.1l0,0.3c0,0,0.1,0,0.1,0l0.2-0.3c0,0,0,0,0,0c0,0,0-0.1,0.1-0.1c0,0,0.1,0,0.1,0.1c0,0,0,0.1-0.1,0.1h0l-0.2,0.3
        c0,0,0.1,0.1,0.1,0.1l0.2-0.1c0,0,0-0.1,0.1-0.1c0,0,0.1,0,0.1,0.1c0,0,0,0.1-0.1,0.1c0,0,0,0-0.1,0l-0.2,0.1v0.1l0.3,0
        C100.8,14.6,100.8,14.6,100.9,14.6C100.9,14.6,100.9,14.6,100.9,14.6z"/>
    <path class="st1" d="M87.8,14.9l5.6-0.1c0,0,2.8,7.7,6.4,11.6c3.6,3.9,5.3,5.5,5.3,5.5s-15.6,6.7-28.3-0.4c0,0,4.5-2.5,7.4-8.2
        C87.1,17.6,87.8,14.9,87.8,14.9L87.8,14.9z"/>
    <path class="st3" d="M23.3,26.8c-0.1,0-0.4,0.1-0.5,0.2c-1.8,0.9-3.1,1.5-5.3,1.5c-0.9,0-6.5,0-7.4-6.7c0.7,0.1,1.5,0.4,2.9,0.4
        c6.9,0,12.1-5.5,12.1-11.6c0-5.4-4.5-9.2-9.7-9.2c-7.2,0-13,7-13,15.4c0,10,7.3,13.9,13,13.9c4.7,0,8.3-2.5,8.3-3.4
        C23.7,26.9,23.5,26.8,23.3,26.8z M18.2,9.6c1.2,0,2.6,0.7,2.6,3.1c0,3.8-3.6,8-8.8,8c-1,0-1.4-0.2-1.9-0.3c0-0.5-0.1-0.8-0.1-1.2
        C10,14,15,9.6,18.2,9.6z"/>
    <path class="st3" d="M35.4,21.6c-1.5,0.7-3.9,1.5-5.7,1.5c-2.3,0-4.2-0.8-4.2-2.1c0-0.9,0.8-1.3,1.8-1.3c0.9,0,1.1,0,4.5,0.9
        C32.9,20.9,34.9,21.4,35.4,21.6L35.4,21.6z"/>
    <path class="st3" d="M43.8,24.9c-0.5-2-0.5-2.2-0.5-2.9c0-0.9,0.4-3.2,0.5-3.6c0.2-0.7,0.2-0.9,0.2-1.3c0-1-0.7-2.5-1.8-2.5
        c-1.1,0-2,1.6-2,4.4c0,0.6,0,1.4,0.4,2.8c0.5,2.1,0.6,2.7,0.6,3.4c0,2.2-1.7,4.4-3.8,4.4c-0.6,0-1.1-0.2-1.9-0.4
        C35.3,29,35.2,29,35.1,29c0,0-0.2,0-0.2,0.1c0,0.1,0.1,0.3,0.2,0.4c0.7,1.1,1.7,1.9,3.9,1.9c2.9,0,5.1-1,5.1-4.3
        C44.1,26.5,44,25.4,43.8,24.9z M42.6,9.2c-1,0-1.8,0.8-1.8,1.8c0,1,0.8,1.8,1.8,1.8c1,0,1.8-0.8,1.8-1.8C44.5,10,43.6,9.2,42.6,9.2
        z"/>
    <path class="st3" d="M56.6,18.1c-0.9-1.6-2.4-3.6-6-3.6c-0.7,0-3,0-3,1.9c0,1.1,0.7,1.2,2.2,1.6c2.1,0.5,2.9,0.9,3.3,1.2
        c-0.7,0.3-3.3,1.6-4.8,2.8c-1,0.8-2.2,2.3-2.2,3.9c0,0.7,0.3,2.5,3,2.5c1.5,0,4.3-0.7,7.6-3.3c0.3,0.9,0.4,1.1,1,3.1
        c0.1,0.2,0.2,0.5,0.4,0.5c0.4,0,0.4-1,0.4-1.5C58.5,24.4,57.9,20.5,56.6,18.1z M51.7,25.9c-0.5,0-1.5-0.2-1.5-1.5
        c0-1.4,0.8-2.5,3.7-4.7c1.3,1.2,2.3,3.8,2.7,4.8C54.9,25.3,52.9,25.9,51.7,25.9z"/>
    <path class="st3" d="M66.5,16c1-0.9,1.9-1.6,3-1.6c1.5,0,1.5,1.4,1.5,1.8c0,0.3,0,0.8-0.1,1.5c-0.2,2.5-0.3,3.4-0.3,4.9
        c0,2.2,0.3,4.2,0.8,4.2c0.3,0,1.1-0.9,1.3-1.3c0.2-0.2,0.2-0.3,0.2-0.3c0,0,0.1,0,0.1,0.1c0,0.2-0.9,2.8-2,2.8
        c-1.4,0-1.6-2.9-1.8-5.4c-0.1-1.8-0.1-2.2-0.5-2.2c-1.1,0-2.6,2.1-4.7,5.4c-0.2,0.3-0.9,1.5-1.1,1.7c-0.2,0.2-0.4,0.4-0.6,0.4
        c-0.8,0-1.7-4.1-1.7-7.3c0-3.1,0.8-6.5,1.6-6.5c0.4,0,1.1,0.7,1.1,1.3c0,0.3-0.5,1.4-0.5,1.7c-0.5,1.5-0.6,2.6-0.7,3.2
        C63,19.3,64.8,17.5,66.5,16L66.5,16z"/>
    <path class="st0" d="M100.9,14.6C100.9,14.6,100.9,14.6,100.9,14.6c-0.1-0.1-0.1-0.1-0.2,0l-0.3,0c0,0,0-0.1,0-0.1c0,0,0,0,0,0
        l0.2-0.1c0,0,0,0,0.1,0c0,0,0.1,0,0.1-0.1c0,0,0-0.1-0.1-0.1c0,0-0.1,0-0.1,0.1l-0.2,0.1c0-0.1-0.1-0.1-0.1-0.1l0.2-0.3
        c0,0,0,0,0,0c0,0,0.1,0,0.1-0.1c0,0,0-0.1-0.1-0.1c0,0-0.1,0-0.1,0.1c0,0,0,0,0,0l-0.2,0.3c0,0-0.1,0-0.1,0l0-0.3
        c0,0,0.1-0.1,0.1-0.1c0-0.1-0.1-0.1-0.1-0.1c0,0-0.1,0-0.1,0.1c0,0,0,0.1,0.1,0.1l0,0.3c0,0-0.1,0-0.1,0l-0.2-0.2c0,0,0,0,0,0
        c0-0.1,0-0.1-0.1-0.1c0,0-0.1,0-0.1,0.1c0,0,0,0.1,0.1,0.1c0,0,0,0,0,0l0.2,0.2c0,0-0.1,0.1-0.1,0.1l-0.3-0.1v0
        c0-0.1,0-0.1-0.1-0.1c0,0-0.1,0-0.1,0.1c0,0,0,0.1,0.1,0.1c0,0,0,0,0,0l0.3,0.1c0,0,0,0,0,0s0,0,0,0l-0.3,0.1c0,0,0,0,0,0
        c-0.1,0-0.1,0-0.1,0.1c0,0,0,0.1,0.1,0.1c0,0,0.1,0,0.1-0.1c0,0,0,0,0,0l0.2-0.1c0,0.1,0,0.1,0.1,0.1l-0.1,0.2c0,0,0,0,0,0
        c0,0-0.1,0-0.1,0.1c0,0,0,0.1,0.1,0.1c0,0,0.1,0,0.1-0.1c0,0,0,0,0-0.1l0.1-0.2c0,0,0.1,0,0.2,0l0,0.2c0,0,0,0,0,0.1
        c0,0.1,0,0.1,0.1,0.1c0,0,0.1-0.1,0.1-0.1s0-0.1-0.1-0.1l0-0.2c0.1,0,0.1,0,0.1-0.1l0.2,0.2c0,0,0,0,0,0.1c0,0,0,0.1,0.1,0.1
        c0,0,0.1,0,0.1-0.1c0,0,0-0.1-0.1-0.1c0,0,0,0,0,0l-0.2-0.2c0,0,0,0,0-0.1l0.3,0.1C100.8,14.7,100.8,14.7,100.9,14.6
        C100.9,14.7,100.9,14.7,100.9,14.6z"/>
    <path class="st4" d="M101.3,26.8C101.3,26.8,101.3,26.8,101.3,26.8C101.3,26.8,101.3,26.8,101.3,26.8"/>
    <path class="st4" d="M98.9,23.9L98.9,23.9C98.9,23.9,98.9,23.9,98.9,23.9"/>
    <path class="st3" d="M102.8,28.6C102.8,28.6,102.8,28.6,102.8,28.6c0,0,0,0.1,0.1,0.1L102.8,28.6z"/>
    <path class="st4" d="M95.3,16.7L95.3,16.7C95.3,16.8,95.3,16.7,95.3,16.7"/>
    <path class="st4" d="M97.3,21.1C97.3,21.1,97.3,21,97.3,21.1C97.3,21.1,97.3,21.1,97.3,21.1"/>
    <path class="st4" d="M103.3,29.8L103.3,29.8C103.2,29.7,103.2,29.7,103.3,29.8"/>
    <path class="st4" d="M104.9,31.4C104.9,31.4,104.9,31.4,104.9,31.4C104.9,31.4,104.9,31.4,104.9,31.4"/>
    <path class="st4" d="M104.4,30.6C104.4,30.6,104.4,30.6,104.4,30.6C104.4,30.6,104.4,30.6,104.4,30.6"/>
    <path class="st4" d="M104.3,30.6L104.3,30.6C104.3,30.6,104.3,30.6,104.3,30.6"/>
    <path class="st3" d="M76.7,31.3c-0.1,0-0.1,0.1-0.1,0.1L76.7,31.3z"/>
    <path class="st4" d="M89.1,13.6L89.1,13.6C89.1,13.6,89.1,13.6,89.1,13.6"/>
    <path class="st4" d="M76.8,31.5L76.8,31.5C76.8,31.6,76.8,31.5,76.8,31.5"/>
    <path class="st4" d="M102.4,28.9c-0.1,0-0.1-0.2-0.2-0.1C102.3,28.8,102.3,28.9,102.4,28.9"/>
    <path class="st4" d="M87.9,14.9L87.9,14.9C87.9,14.9,87.9,14.9,87.9,14.9"/>
    <path class="st4" d="M76.8,31.5L76.8,31.5C76.8,31.5,76.8,31.5,76.8,31.5C76.8,31.5,76.8,31.5,76.8,31.5"/>
    <polygon class="st3" points="84.9,19.9 84.9,19.9 84.9,19.9     "/>
    <path class="st4" d="M84.7,20.3C84.7,20.3,84.7,20.2,84.7,20.3C84.7,20.2,84.7,20.3,84.7,20.3"/>
    <path class="st4" d="M76.6,31.4L76.6,31.4C76.6,31.5,76.6,31.4,76.6,31.4"/>
    <path class="st4" d="M83,24.2L83,24.2C83,24.2,83,24.2,83,24.2"/>
    <path class="st4" d="M97.4,21.4L97.4,21.4C97.5,21.4,97.5,21.4,97.4,21.4"/>
    <path class="st3" d="M95.3,19L95.3,19L95.3,19z"/>
    <path class="st4" d="M95.4,19.2c0,0-0.1-0.1-0.1-0.1C95.3,19.1,95.4,19.1,95.4,19.2"/>
    <path class="st3" d="M95.2,18.7C95.2,18.7,95.2,18.7,95.2,18.7L95.2,18.7z"/>
    <polygon class="st3" points="96.6,21.7 96.6,21.7 96.6,21.7     "/>
    <path class="st4" d="M96.3,21.1C96.3,21.1,96.3,21.1,96.3,21.1C96.3,21.1,96.3,21.1,96.3,21.1"/>
    <polygon class="st3" points="94.4,17.3 94.4,17.3 94.4,17.3     "/>
    <path class="st3" d="M96.6,21.7L96.6,21.7C96.6,21.7,96.6,21.7,96.6,21.7L96.6,21.7z"/>
    <path class="st4" d="M94.9,18.2C94.9,18.2,94.9,18.2,94.9,18.2C94.9,18.2,94.9,18.2,94.9,18.2"/>
    <path class="st4" d="M94.4,17.3C94.4,17.4,94.4,17.3,94.4,17.3C94.4,17.3,94.4,17.3,94.4,17.3"/>
    <path class="st4" d="M97.9,23.6C97.9,23.6,97.9,23.6,97.9,23.6C97.9,23.6,97.9,23.6,97.9,23.6"/>
    <path class="st4" d="M101.9,28.4C101.9,28.4,101.9,28.4,101.9,28.4C101.9,28.4,101.9,28.4,101.9,28.4"/>
    <path class="st4" d="M101.7,28.1C101.7,28.1,101.7,28.1,101.7,28.1C101.7,28.1,101.7,28.1,101.7,28.1"/>
    <path class="st4" d="M97.1,22.3C97.1,22.3,97.1,22.3,97.1,22.3C97.1,22.3,97.1,22.3,97.1,22.3"/>
    <polygon class="st3" points="101.6,28 101.6,28 101.6,28     "/>
    <path class="st4" d="M102,28.5C101.9,28.5,101.9,28.4,102,28.5C101.9,28.5,101.9,28.5,102,28.5"/>
    <path class="st4" d="M99.3,25.4L99.3,25.4C99.3,25.4,99.3,25.4,99.3,25.4"/>
    <polygon class="st3" points="101.3,27.8 101.3,27.8 101.3,27.8     "/>
    <path class="st4" d="M102.2,28.8C102.2,28.8,102.2,28.8,102.2,28.8C102.2,28.8,102.2,28.8,102.2,28.8
        C102.2,28.8,102.2,28.8,102.2,28.8"/>
    <path class="st4" d="M100.1,26.5C100.2,26.5,100.2,26.5,100.1,26.5C100.2,26.4,100.2,26.4,100.1,26.5"/>
    <path class="st4" d="M102.8,28.7C102.8,28.7,102.8,28.7,102.8,28.7C102.8,28.7,102.8,28.7,102.8,28.7"/>
    <path class="st4" d="M101.4,26.8L101.4,26.8C101.5,26.8,101.5,26.8,101.4,26.8"/>
    <path class="st3" d="M103.6,29.7L103.6,29.7C103.6,29.7,103.6,29.7,103.6,29.7L103.6,29.7z"/>
    <path class="st4" d="M98.7,23L98.7,23C98.7,23,98.7,23,98.7,23"/>
    <path class="st4" d="M100.3,25.3C100.3,25.3,100.3,25.3,100.3,25.3C100.3,25.3,100.3,25.3,100.3,25.3"/>
    <path class="st4" d="M103.9,30.4L103.9,30.4C103.9,30.4,103.9,30.4,103.9,30.4"/>
    <polyline class="st4" points="104.9,31.3 104.9,31.3 104.9,31.3     "/>
    <path class="st4" d="M104.6,30.9C104.6,30.9,104.6,30.9,104.6,30.9C104.6,30.9,104.6,30.9,104.6,30.9"/>
    <path class="st4" d="M104.5,30.9L104.5,30.9C104.6,30.9,104.5,30.9,104.5,30.9"/>
    <path class="st3" d="M86.5,14.6c0,0-0.1,0-0.1,0L86.5,14.6z"/>
    <path class="st4" d="M96.4,19.4L96.4,19.4C96.4,19.4,96.4,19.4,96.4,19.4"/>
    <path class="st4" d="M86.5,14.6L86.5,14.6C86.5,14.6,86.5,14.6,86.5,14.6"/>
    <path class="st4" d="M103.3,30c0,0-0.1-0.1-0.1-0.1C103.2,29.9,103.3,30,103.3,30"/>
    <path class="st4" d="M95,19.1L95,19.1C95,19.1,95,19.1,95,19.1"/>
    <polygon class="st3" points="86.5,14.6 86.5,14.6 86.5,14.6     "/>
    <polygon class="st3" points="94.6,15.4 94.6,15.4 94.6,15.4     "/>
    <path class="st4" d="M94.5,15.2C94.5,15.2,94.5,15.2,94.5,15.2C94.5,15.2,94.5,15.2,94.5,15.2"/>
    <path class="st4" d="M86.4,14.6L86.4,14.6C86.4,14.6,86.4,14.6,86.4,14.6"/>
    <path class="st4" d="M92.2,14L92.2,14C92.2,14,92.2,14,92.2,14"/>
    <path class="st4" d="M100.4,25.4C100.4,25.4,100.4,25.4,100.4,25.4C100.4,25.5,100.4,25.4,100.4,25.4"/>
    <polygon class="st3" points="98.4,24.7 98.4,24.7 98.4,24.7     "/>
    <path class="st4" d="M98.5,24.7C98.5,24.7,98.5,24.7,98.5,24.7C98.4,24.7,98.5,24.7,98.5,24.7"/>
    <path class="st4" d="M98.3,24.5L98.3,24.5C98.3,24.5,98.3,24.5,98.3,24.5"/>
    <polygon class="st3" points="99.4,26.1 99.4,26.1 99.4,26.1     "/>
    <path class="st4" d="M99.2,25.8C99.2,25.8,99.2,25.8,99.2,25.8C99.2,25.8,99.2,25.8,99.2,25.8"/>
    <polygon class="st3" points="97.7,23.8 97.7,23.8 97.7,23.8     "/>
    <path class="st3" d="M99.5,26.2L99.5,26.2C99.4,26.1,99.4,26.1,99.5,26.2L99.5,26.2z"/>
    <path class="st4" d="M98.1,24.2C98.1,24.2,98.1,24.2,98.1,24.2C98.1,24.2,98.1,24.2,98.1,24.2"/>
    <path class="st4" d="M97.7,23.8C97.7,23.9,97.7,23.8,97.7,23.8C97.7,23.8,97.7,23.8,97.7,23.8"/>
    <path class="st4" d="M100.4,27.1C100.4,27.1,100.4,27.1,100.4,27.1C100.4,27.1,100.4,27.1,100.4,27.1"/>
    <path class="st4" d="M103,29.7C103,29.7,103,29.7,103,29.7C103,29.7,103,29.7,103,29.7"/>
    <path class="st4" d="M102.9,29.5C102.9,29.5,102.9,29.5,102.9,29.5C102.9,29.5,102.9,29.5,102.9,29.5"/>
    <path class="st4" d="M99.8,26.4C99.8,26.4,99.8,26.4,99.8,26.4C99.8,26.4,99.8,26.4,99.8,26.4"/>
    <polygon class="st3" points="102.8,29.5 102.8,29.4 102.8,29.5     "/>
    <path class="st4" d="M103,29.8C103,29.7,103,29.7,103,29.8C103,29.7,103,29.8,103,29.8"/>
    <path class="st4" d="M101.4,28L101.4,28C101.4,28,101.4,28,101.4,28"/>
    <polygon class="st3" points="102.6,29.4 102.6,29.4 102.6,29.4     "/>
    <path class="st4" d="M103.2,29.9C103.2,29.9,103.2,29.9,103.2,29.9C103.2,29.9,103.2,29.9,103.2,29.9
        C103.2,29.9,103.2,29.9,103.2,29.9"/>
    <path class="st4" d="M101.9,28.6C101.9,28.6,101.9,28.6,101.9,28.6C101.9,28.6,101.9,28.6,101.9,28.6"/>
    <path class="st4" d="M94.6,21C94.6,21,94.6,21,94.6,21C94.6,21,94.6,21,94.6,21"/>
    <path class="st4" d="M94.1,22L94.1,22C94.1,22,94.1,22,94.1,22"/>
    <path class="st3" d="M95.2,20.4L95.2,20.4C95.2,20.4,95.2,20.4,95.2,20.4L95.2,20.4z"/>
    <path class="st4" d="M92.9,21.2L92.9,21.2C92.9,21.2,92.9,21.2,92.9,21.2"/>
    <path class="st4" d="M93.8,22C93.8,22,93.8,22,93.8,22C93.8,22,93.8,22,93.8,22"/>
    <path class="st4" d="M95.8,20.7L95.8,20.7C95.7,20.7,95.7,20.7,95.8,20.7"/>
    <polyline class="st4" points="96.3,20.1 96.3,20.1 96.3,20.1     "/>
    <path class="st4" d="M96,20.2C96,20.2,96,20.2,96,20.2C96,20.2,96,20.2,96,20.2"/>
    <path class="st4" d="M96,20.2L96,20.2C96,20.2,96,20.2,96,20.2"/>
    <path class="st3" d="M85.6,20.9C85.6,20.9,85.5,20.9,85.6,20.9L85.6,20.9z"/>
    <path class="st4" d="M91.8,19.1L91.8,19.1C91.8,19.1,91.8,19.1,91.8,19.1"/>
    <path class="st4" d="M85.5,21.2L85.5,21.2C85.5,21.2,85.5,21.2,85.5,21.2"/>
    <path class="st4" d="M95.4,20.9C95.4,20.9,95.4,20.9,95.4,20.9C95.4,20.9,95.4,20.9,95.4,20.9"/>
    <path class="st3" d="M90.9,19.8L90.9,19.8L90.9,19.8z"/>
    <path class="st4" d="M85.5,21.2L85.5,21.2L85.5,21.2C85.5,21.2,85.5,21.2,85.5,21.2"/>
    <polygon class="st3" points="89.1,20.1 89.1,20.1 89.1,20.1     "/>
    <path class="st4" d="M89,20.2L89,20.2C89,20.2,89,20.2,89,20.2"/>
    <path class="st4" d="M85.5,21L85.5,21C85.5,21,85.5,21,85.5,21"/>
    <path class="st4" d="M88.4,20.8L88.4,20.8C88.4,20.8,88.4,20.8,88.4,20.8"/>
    <path class="st4" d="M93.8,22.1L93.8,22.1C93.8,22.1,93.8,22.1,93.8,22.1"/>
    <polygon class="st3" points="92.7,22.2 92.7,22.2 92.7,22.2     "/>
    <path class="st4" d="M92.7,22.3C92.7,22.2,92.7,22.2,92.7,22.3C92.7,22.3,92.7,22.3,92.7,22.3"/>
    <polyline class="st4" points="92.6,22.2 92.6,22.2 92.6,22.2     "/>
    <polygon class="st3" points="93.6,22.9 93.6,22.9 93.5,22.9     "/>
    <path class="st4" d="M93.3,22.8C93.3,22.8,93.3,22.7,93.3,22.8C93.3,22.7,93.3,22.8,93.3,22.8"/>
    <polygon class="st3" points="92.1,21.8 92.1,21.8 92.1,21.8     "/>
    <g>
        <polygon class="st3" points="104,30.1 104,30.1 104,30.1         "/>
        <path class="st3" d="M104,30.1L104,30.1C104,30,104,30,104,30.1z"/>
        <path class="st3" d="M93.1,15L93.1,15L93.1,15C93.1,15,93.1,15,93.1,15z M93.1,22.7C93.1,22.7,93.1,22.7,93.1,22.7
            c0,0,0.1,0.1,0.1,0.1C93.2,22.7,93.1,22.8,93.1,22.7z M93.1,15L93.1,15L93.1,15C93.1,15,93.1,15,93.1,15z M105.1,31.5
            c0,0-0.1,0-0.2-0.1c0.1,0,0,0,0-0.1c0,0-0.1-0.1-0.1-0.1c0,0,0,0,0,0c0,0,0,0,0,0c0,0,0.1,0,0,0c0,0,0,0,0,0c0.1,0.1,0,0,0.1,0.1
            C105.1,31.5,105.1,31.4,105.1,31.5C105.1,31.5,105.1,31.5,105.1,31.5C105.1,31.5,105.1,31.4,105.1,31.5
            C105.1,31.5,105.1,31.5,105.1,31.5C105.1,31.5,105.2,31.5,105.1,31.5c0.1-0.1,0-0.1,0-0.2c0,0,0,0-0.1,0c0,0,0,0,0,0l0,0
            c0,0-0.1,0-0.1-0.1c0,0,0.1,0,0,0h0c0,0,0,0,0,0l0,0c0,0,0,0,0,0c0,0,0,0,0,0c0,0,0,0,0,0c0,0,0,0,0.1,0c-0.1-0.2-0.2-0.2-0.3-0.2
            c0,0,0,0-0.1,0c0,0,0,0,0,0c0,0,0,0,0,0l-0.1,0c0,0,0-0.1,0-0.1l0,0l-0.1-0.1l0,0v0c0,0,0,0,0,0h0c0,0,0,0,0,0v0
            c0,0-0.1,0-0.1-0.1c0.1,0,0.1,0,0.1,0l-0.2-0.1c0,0,0-0.1,0-0.1l-0.2-0.2l0,0c0,0,0,0,0,0c-0.1-0.1-0.4-0.2-0.2-0.3
            c-0.2-0.1-0.2-0.2-0.5-0.4c0.2,0.1-0.1-0.2,0.1-0.1c-0.1-0.1-0.1-0.1-0.2-0.2c0-0.1,0-0.1,0.1-0.1l-0.1,0l0,0l-0.1-0.1
            c-0.1-0.1,0,0-0.1-0.1l0,0l0-0.1c0,0-0.1,0-0.1-0.1l0,0l0,0c0,0-0.1-0.1,0-0.1c-0.1-0.1-0.1-0.1-0.2-0.2v0c-0.2-0.1,0,0-0.1-0.2
            l0,0c-0.1-0.1-0.2-0.2-0.3-0.3c0,0,0,0,0,0c0,0,0,0,0,0c0,0,0,0,0,0v0c0,0,0,0,0,0c0,0,0,0,0,0c0,0,0,0,0,0l0,0c0,0,0,0,0,0
            c0,0,0,0,0,0c-0.1-0.1-0.1-0.1-0.2-0.2c0,0,0,0,0,0c-0.1-0.1,0-0.1-0.2-0.2l0,0l-0.1,0v-0.1l0,0.1c0,0,0,0,0,0c0,0,0-0.1,0-0.1h0
            c-0.1-0.1,0-0.2-0.2-0.2h0c-0.1,0,0-0.1-0.2-0.2c0,0,0,0,0,0l-0.1,0l0,0l-0.1,0l0-0.1h0c0-0.1-0.1-0.1-0.1-0.3l-0.1,0.1
            c-0.2-0.1-0.2-0.3-0.4-0.5h0c0,0,0-0.1-0.1-0.1l0.1,0l-0.1,0c0-0.1,0.1,0,0.1,0c-0.1-0.1-0.1,0-0.2-0.1c0,0,0,0,0,0
            c-0.1-0.1-0.2-0.2-0.2-0.3c0,0,0,0,0,0c-0.1,0-0.1-0.2-0.2-0.2c0,0,0,0,0.1,0c0,0,0-0.1-0.1-0.1l0.1,0c0-0.1-0.1-0.1-0.1-0.2
            c0,0-0.1,0-0.1,0c0.1-0.1-0.1-0.1-0.2-0.2c0,0,0.1,0,0.1,0c0,0-0.1,0-0.1-0.1l0,0l-0.2-0.2c0.1-0.1-0.1-0.2-0.1-0.2
            c0-0.1,0,0.1-0.1,0c0,0-0.1-0.1,0-0.1h0l0-0.1l0.1,0c0,0-0.1,0-0.2,0c0-0.1-0.1-0.1,0-0.2l0,0c-0.1-0.1,0-0.3-0.2-0.4c0,0,0,0,0,0
            l0-0.1l0,0l-0.2-0.1l0,0c-0.1-0.1-0.2-0.2-0.3-0.3c-0.1-0.1-0.1-0.1-0.1-0.2c0,0,0,0,0,0c0,0,0,0,0,0l-0.1-0.1h0
            c-0.1,0-0.1-0.2-0.1-0.2c0,0-0.1,0-0.2,0c-0.1-0.1,0,0,0-0.1c0-0.1-0.1,0-0.1-0.2l0,0c0,0-0.1-0.1-0.1-0.1c-0.1-0.1,0-0.2-0.2-0.2
            c0,0-0.1-0.1,0-0.2c-0.1-0.1-0.2-0.2-0.3-0.3c0.1-0.1,0,0,0-0.1l0,0c-0.1-0.2-0.1-0.4-0.3-0.6l0,0l-0.1,0
            c-0.1-0.2-0.3-0.5-0.4-0.6c-0.1,0-0.1-0.1-0.2-0.2h0c-0.1-0.1-0.2-0.3-0.3-0.5c0,0,0,0,0,0c-0.1,0,0-0.1-0.1-0.1l0,0.1
            c0,0,0-0.1,0-0.1c0,0,0,0,0,0l0,0c0,0-0.1-0.1,0-0.1c0,0,0,0,0,0v0c0,0,0,0-0.1,0c0,0,0-0.1,0-0.1l0,0l-0.1-0.1l0.1,0
            C96.3,19,96.2,19,96.2,19l0,0c0-0.1-0.1-0.2-0.1-0.2c-0.1-0.2-0.1-0.4-0.2-0.6c0,0,0,0,0,0L95.8,18l0,0l-0.2-0.2l0,0
            c-0.1-0.2-0.2-0.4-0.3-0.6c-0.1-0.2-0.1-0.2-0.2-0.4l-0.1-0.2l0,0c-0.1-0.1-0.1-0.2-0.1-0.3c0,0-0.1-0.2-0.2-0.2
            c-0.1-0.2,0,0,0-0.2c0-0.1-0.1-0.1-0.2-0.3l0,0c0-0.1-0.1-0.1-0.1-0.2l0,0c-0.1-0.1-0.1-0.2-0.2-0.3c0,0,0,0,0,0l0,0c0,0,0,0,0,0
            c0-0.1-0.1-0.2,0-0.2c-0.1-0.1-0.1-0.2-0.2-0.3c0,0,0,0,0,0l-0.1-0.1l0,0c-0.1-0.2-0.1-0.6-0.3-0.5h0c0,0,0,0-0.1,0v0
            c0,0,0,0-0.1,0c-0.7-0.1-0.9-0.2-1.3-0.2l0,0l-0.1,0c-0.4-0.1-1-0.1-1.3-0.1c-0.1,0-0.3,0.1-0.5,0c-0.3,0-0.6,0-1,0c0,0,0,0,0,0
            c-0.1,0-0.2,0-0.3,0l0.1,0c-0.1,0-0.2,0-0.3,0l-0.1,0.1c0,0,0,0,0,0l0,0L89,13.5c0,0-0.2,0-0.3,0.1c0,0-0.2,0-0.1,0
            c0,0-0.1,0-0.3,0c-0.1,0-0.3,0-0.3,0h0.1c0,0-0.2,0.1-0.3,0.1c0.1-0.1,0-0.1-0.1-0.1c-0.1,0,0.1,0,0,0c-0.1,0-0.4,0.2-0.5,0.2
            l0-0.1C87.3,14,87.2,14,87,14.1c-0.1,0.2-0.2,0.2-0.1,0.3c-0.1,0.2-0.1,0-0.1,0.1c0,0,0,0,0,0c-0.1,0-0.2,0-0.2,0c0,0-0.1,0-0.1,0
            c0,0,0,0,0,0h-0.1c0,0,0,0,0,0h0c0,0,0,0,0,0l0,0h0.1c0,0,0,0,0,0c0,0,0.1,0,0.2,0c0,0,0,0,0,0v0c0,0,0,0,0,0c0,0,0,0,0,0h0
            c0,0.1-0.1,0.3-0.2,0.3c0.1,0.1-0.2,0.4-0.1,0.5l-0.1,0.1c0,0,0.1,0.1,0,0.2c-0.1,0.1-0.1,0.1-0.1,0.1l0.1,0.1
            c-0.2,0.5-0.4,1.2-0.7,1.8c-0.1,0.3-0.1,0.6-0.3,0.9v0l-0.1,0.3l0.1-0.2c0,0.1,0,0.1,0,0.2c-0.2,0.3-0.4,0.7-0.5,1.2
            c0,0.3-0.1,0.1-0.2,0.4c0,0,0,0,0-0.1c-0.1,0.3-0.1,0.4-0.2,0.7c-0.1-0.1-0.1,0.2-0.1,0.1l0,0c0,0-0.1,0.2-0.1,0.2v0.1l0,0
            C84.2,21.6,84.1,22,84,22c-0.1,0.2-0.2,0.5-0.3,0.8c-0.1,0.2-0.2,0.5-0.3,0.7c0,0.1-0.1,0.2-0.1,0.3l-0.1,0.1
            c0,0.1-0.1,0.3-0.1,0.3c0,0,0,0,0,0c-0.1,0.1-0.1,0.2-0.2,0.3c-0.1,0.1-0.2,0.2-0.2,0.1c0.1,0.1-0.2,0.2-0.2,0.2s-0.2,0.3-0.6,0.9
            c-0.2,0.3-0.5,0.6-0.7,0.9c-0.3,0.3-0.6,0.7-0.9,1.1c-1.3,1.5-2.9,2.8-3.5,3.5c0,0.1-0.1,0.2-0.1,0.2c-0.1,0.1-0.2,0-0.2,0.1
            c0.2-0.1,0,0.1,0.2,0.1l-0.1,0.1c0,0,0.1-0.1,0.1,0l0-0.1c0.1,0,0.1,0,0.2,0c0,0,0,0,0,0c0-0.1,0-0.2,0.2-0.2c0.1,0,0.1,0,0.1,0
            l0,0l0.1,0c0,0,0,0-0.1,0c0,0,0,0,0,0c0,0,0,0,0,0c0,0,0,0,0,0l0.1-0.1l0,0c0,0,0,0,0,0l0.1-0.1c0.1,0,0.1-0.2,0.3-0.2
            c-0.1,0.1,0,0,0,0.1l0.3-0.2c0,0,0,0,0,0.1c0.1,0,0.1-0.1,0.1-0.1c0,0,0.2-0.2,0.2-0.1c0.2-0.1,0-0.1,0.2-0.2c0,0-0.1,0.1,0,0.1
            l0.2-0.2c0,0,0,0.1-0.1,0.1c0.5-0.4,0.9-0.5,1.2-0.9c0.1,0,0,0,0,0.1c0.2-0.3,0.5-0.3,0.7-0.6l0,0c0.4-0.3,0.8-0.8,1.2-1.2l-0.1,0
            c0-0.1,0.1-0.2,0.2-0.3c0,0,0,0.1,0.1,0c0,0-0.1,0.1-0.1,0c0.4-0.3,1-1.1,1.5-1.8c0.3-0.5,0.6-0.9,0.9-1.4
            c0.1-0.3,0.3-0.5,0.4-0.8c0.1-0.2,0.2-0.4,0.3-0.6c0,0.1-0.1,0,0-0.1c0.3-0.2,0.2-0.5,0.5-0.8c0.1-0.3,0.2-0.6,0.3-0.8
            c0,0,0,0,0,0l0,0c0,0,0,0,0,0c0,0,0,0,0,0l0.1,0c0,0.1,0.1,0,0.1,0.1c0,0,0,0,0,0.1l0.1,0c0,0,0,0,0,0c0,0,0,0,0,0
            c0,0,0.1,0,0.1,0.1c0.1,0,0-0.1,0.1,0c0,0-0.1,0,0,0l0.1,0c0,0,0,0.1,0,0.1c0.2,0.1,0.3,0.3,0.5,0.2c0,0,0,0,0,0
            c0.1,0,0.1,0.1,0.2,0.1l0,0C87,22,87.2,22,87.4,22l0,0c0,0,0.1,0,0.1,0c0,0,0,0,0,0c0.2,0.1,0.5,0.1,0.8,0.1
            c0.2,0,0.4-0.1,0.6-0.1c0.2-0.1,0.5-0.2,0.6-0.3c0,0,0-0.1,0-0.1c0.2,0,0.1-0.2,0.3-0.2c0.1-0.2,0.3-0.3,0.3-0.5l0,0
            c0,0,0,0,0-0.1h0c0.1,0,0.1-0.1,0.1-0.2l0,0c0,0,0,0,0,0l0,0l0-0.1c0.1,0,0.1-0.1,0.1-0.1c0,0,0-0.1,0.1-0.2c0,0,0.1,0,0.1-0.1
            c0-0.1,0.1-0.2,0.2-0.2l0,0l0,0c0,0,0,0,0,0c0,0,0,0,0,0l0,0c0,0,0,0,0,0c0,0,0,0,0,0v0c0,0,0,0,0.1,0.1c0,0,0-0.1,0-0.1
            c0,0,0,0,0,0c0,0,0,0,0-0.1c0,0,0,0,0,0c0,0,0,0,0,0h0c0,0,0,0,0,0c0,0,0,0.1,0,0c0,0,0,0,0,0s0,0,0,0l0,0c0,0,0.1,0,0,0
            c0,0,0,0-0.1,0c0,0,0,0,0.1,0c0,0,0,0,0,0c0,0,0,0,0,0c0,0,0,0.1,0,0.1c0,0,0,0,0,0c0.1,0,0,0,0,0.1c0.1,0.1,0.2,0.3,0.3,0.5
            c0.1,0,0.1,0.1,0.1,0.1l-0.1,0l0,0c0,0,0,0,0,0h0c0,0,0,0.1,0,0.1l0.1,0.2c0,0,0.1,0,0.1,0.1c0,0,0,0-0.1,0c0,0.2,0.2,0.1,0.3,0.2
            c0,0,0,0,0,0c0.1,0-0.1,0,0-0.1c0.1,0,0.1,0,0.1,0c0,0,0,0,0,0.1c0,0.1,0.1,0.1,0,0.2c0,0,0.1,0,0.1,0c0,0.1,0,0,0,0.1l0,0
            c0,0,0,0,0,0.1c0,0,0.1,0,0.1,0.1l0,0c0,0,0.1,0,0.1,0.1c0,0,0,0-0.1,0c0,0.1,0.1,0,0.1,0.1c0,0,0-0.1,0-0.1c0,0,0.1,0,0.1,0.1h0
            c0.1,0,0.1,0,0.1,0c0,0,0,0,0,0c0.1,0,0.1,0.1,0.1,0.1c0,0,0,0,0.1,0c0,0,0,0,0-0.1c0,0.1,0.1,0,0.1,0.1c0,0-0.1,0,0,0
            c-0.1,0-0.1,0.1-0.2,0.1c0,0,0,0,0,0l0,0c0,0,0,0,0,0c0,0,0-0.1,0.1-0.1c0,0,0,0,0,0c0.1,0,0.1,0,0.1,0c0,0,0,0,0,0
            c0,0,0.1,0.1,0,0.1c0,0,0,0,0,0v0c-0.1,0,0,0,0,0c0,0,0,0,0.1,0l0,0c0.2,0-0.1,0.1,0,0.1c0.1,0,0,0,0,0c0,0,0,0.1,0.1,0.1
            c0,0,0,0,0,0.1l0,0c0,0,0.1,0,0.1,0.1c0,0,0,0,0,0c0.1,0,0.1,0,0.2,0.1c0,0,0,0-0.1,0c0,0.1,0.1,0,0.1,0.1c0,0-0.1,0-0.1,0l0.1,0
            c0,0,0,0,0,0c0-0.1,0.1,0,0.2,0c0.1,0,0.2,0,0.2-0.1c0,0,0,0,0,0.1c0,0,0,0,0,0c0,0,0.1,0.1,0.1,0.1c0.1,0,0,0,0-0.1h0.1
            c0,0-0.1,0,0-0.1c0,0,0.1,0,0.1,0c0,0,0,0,0,0.1c0,0,0.1,0,0.1-0.1c-0.1,0,0.1-0.1,0-0.1l0.1,0c0,0,0,0,0,0c0,0,0-0.1,0-0.1
            c0,0,0.1,0,0.1,0c0,0,0,0,0.1,0c0,0,0,0,0-0.1l0.1-0.1c0,0,0.1,0,0.1,0.1c0,0-0.1-0.1,0-0.1c0,0.1,0.1,0,0.1,0
            c0.1,0,0.1-0.1,0.1-0.2c0-0.1,0,0-0.1,0c0-0.2-0.1-0.2,0-0.3l0,0c0-0.1,0,0,0-0.1c0,0,0.2,0,0.2-0.1c0,0-0.1,0-0.1,0l0,0
            c0,0,0,0,0,0c0,0,0.1-0.1,0-0.1l0.1,0c0,0,0-0.1,0-0.1c0-0.1,0-0.1,0.1-0.1c0,0-0.1,0-0.1,0c0.1,0,0.1-0.1,0.1-0.1c0,0,0,0,0,0
            l0.1,0c-0.1,0,0-0.1,0-0.1c0.1,0,0,0,0.1,0c-0.1,0,0-0.1,0-0.1c0,0,0.1,0,0.1,0l0,0c0,0,0.1,0,0.1-0.1l0-0.1l0,0c0,0,0,0,0,0v0
            c-0.1,0,0,0,0-0.1c0,0,0,0,0,0c0,0,0,0,0,0c0,0,0-0.1-0.1-0.1c0,0,0-0.1,0-0.1l0,0l0-0.1c0,0,0,0,0.1,0c0,0,0,0.1,0.1,0.1
            c0,0,0,0,0,0.1v0c0,0,0,0,0,0c0,0,0,0,0-0.1c0,0,0,0,0,0.1c0,0,0,0,0,0c0,0,0,0,0,0c0,0,0,0,0,0c-0.1-0.1,0-0.1,0-0.1c0,0,0,0,0,0
            v0c0,0,0,0,0,0h0c0,0,0,0,0,0c0,0,0.1,0,0.1,0l0,0h0.1c0,0-0.1,0,0-0.1c0,0,0.1,0,0.1,0c0,0,0,0.1,0,0.1c0,0,0.1-0.1,0.1-0.1h0
            c0.2,0.3,0.5,0.7,0.6,1c0.1,0,0.2,0.1,0.2,0.2l-0.1,0.1l0.1,0.1c0,0,0-0.1,0,0h0.1c0,0,0.1,0.2,0,0.1l0.2,0.3c0,0.1,0.1,0,0.1,0.1
            c0,0,0,0-0.1,0c0.1,0.3,0.3,0.2,0.4,0.4l0,0c0,0,0.1,0.1,0.1,0.1c0.1-0.1-0.1,0,0-0.1c0.1,0,0.1,0.1,0.1,0c0,0.1,0.1,0.1,0.1,0.1
            c0,0.1,0.1,0.2,0.1,0.3c0,0,0.2,0,0.2,0.1c0,0.1-0.1,0,0,0.1l0,0c0,0.1,0,0.1,0,0.1c0,0.1,0.1,0,0.1,0.1l-0.1,0
            c0.1,0,0.1,0.1,0.1,0.2c0,0,0,0-0.1,0c0,0.1,0.1,0.1,0.1,0.1c0,0,0-0.1,0-0.1c0,0,0.1,0,0.1,0.1l-0.1,0c0.1,0.1,0.1,0,0.1,0.1
            c0,0,0,0,0,0c0,0,0,0,0.1,0.1c0,0,0,0.1,0.1,0.2h0l0,0c0,0,0.1,0.1,0.1,0.1c0,0,0,0-0.1,0c0,0,0.1,0,0.1,0.1l0,0c0,0,0,0,0,0.1
            c0,0,0,0,0,0c0,0,0,0,0,0c0,0,0,0,0,0c0,0,0,0,0.1,0.1c0,0,0,0,0.1,0c0,0,0,0,0,0c0,0.1,0.1,0.1,0.1,0.2c0,0,0,0,0,0
            c0,0,0,0-0.1,0l0,0c-0.1,0,0,0,0,0.1c0,0,0.1,0.1,0.1,0.1l0-0.1h0c0.1,0,0.1,0,0,0c0,0-0.1,0.1-0.1,0.2c0.1,0,0,0,0.1,0
            c0,0.1,0,0.1,0.1,0.2c0,0,0,0.1,0,0.2c0.1,0,0.1,0.2,0.2,0.2c0-0.1-0.1,0-0.1-0.2l0.1,0c0,0.1,0.1,0.1,0.2,0.2c0,0,0,0,0,0
            c0,0,0.1,0,0.1,0.1c0,0,0,0,0,0c0,0,0.1,0,0.1,0.1l0,0c0,0-0.1,0-0.1-0.1c0,0.1,0,0.1,0.1,0.2c0,0,0-0.1-0.1,0l0.1,0.1l0,0
            c0.1,0,0.1,0.1,0.1,0.1c0,0.1,0.1,0.1,0.1,0.1c0,0,0,0,0,0c0,0,0.1,0,0.1,0h0c0,0,0.1,0,0.1,0c0,0,0,0.1,0,0.1c0-0.1,0,0-0.1,0
            c0.1,0,0,0.2,0,0.2c0.1,0,0-0.1,0.1,0l0.1,0.1c0,0,0-0.1,0-0.1c0,0,0,0,0,0c0,0,0,0,0,0c0,0,0.1,0.1,0.1,0.1h0c0,0,0,0-0.1,0
            c0,0,0,0.1,0.1,0.1c0,0,0,0,0,0h0c0,0,0.1,0.1,0.1,0l0,0.1c0,0,0,0-0.1,0c0,0,0,0,0,0c0,0,0,0,0,0c0,0,0,0,0,0c0,0,0,0,0.1,0
            c0,0,0,0.1,0,0.1v0c0,0,0,0,0,0l0,0c0,0,0,0,0,0.1c0,0,0,0,0,0c0,0,0,0,0,0l0.1,0.1c0,0,0,0,0,0c0,0-0.1,0.1-0.1,0.1
            c0,0,0.1,0,0.1,0c-0.1,0,0,0.1-0.1,0.1c0,0.1,0.1,0.2,0.2,0.2c0.1,0,0-0.1,0-0.1c0.1,0.1,0.2,0.1,0.2,0.1h0c0,0,0.1,0,0.1,0.1l0,0
            c0.1,0,0.1,0,0.2,0.1c0,0,0,0,0,0c0,0,0,0,0,0.1c0,0,0,0,0,0v0c0,0.1,0,0.1,0.1,0.2c0,0,0,0,0-0.1c0,0,0,0,0-0.1l0.1,0.1
            c0,0,0,0,0,0c0.1,0.1,0.1,0.2,0.1,0.2v0.1c0,0,0,0,0,0h0c0,0,0.1,0,0.1,0c0.1,0,0.1,0.1,0.1,0.2c0,0,0-0.1,0.1-0.1
            c-0.1,0.1,0.1,0.2,0,0.2c0,0,0,0.1,0.1,0.1l0,0l0,0c0,0,0,0,0,0c0,0,0.1,0,0.1,0c0,0,0,0,0,0.1l0-0.1c0,0,0,0,0,0c0,0,0,0,0,0
            c0,0,0.1,0.1,0.1,0.1c0,0,0,0,0,0c0,0,0,0,0,0c0.1,0,0.1,0.1,0.2,0.1c0,0,0,0.1,0,0.1l0,0c0,0,0,0.1,0.1,0.1c0,0,0,0,0,0
            c0,0,0,0,0,0c0,0,0,0.1,0.1,0.1h0l0.1,0v0c0,0,0.1,0,0.1,0l0,0c0,0,0,0,0,0c0,0,0,0,0.1,0.1c0,0,0,0,0,0.1c0,0,0,0,0.1,0
            c0,0,0,0,0,0s0,0,0,0l0,0.1c0,0,0-0.1,0-0.1c0,0,0,0,0.1,0l0,0c0,0,0,0,0,0l0,0.1l0.1,0c0.1,0,0,0.1,0.1,0.1c0,0-0.1,0-0.1,0.1
            c0,0-0.1,0-0.1-0.1c0,0,0,0,0,0l0,0c0,0,0,0,0.1,0c0,0,0,0,0,0c0,0,0,0,0,0.1l0-0.1h0c0,0,0,0,0,0c0,0,0.1,0,0.1,0.1
            c0-0.1,0.2,0.1,0.1,0c0,0,0.1,0,0.1,0.1c-0.1,0,0,0,0,0.1c0,0,0,0,0,0c0,0,0,0.1,0.1,0.1l0,0l0,0.1c0,0,0-0.1,0,0c0,0,0,0,0,0.1
            c0,0,0,0-0.1,0c0.1,0,0.1,0.1,0.1,0l0,0c0,0,0-0.1,0-0.1c0,0,0,0,0,0c0.1,0.1,0.1,0,0,0l0,0c0,0.2,0.3,0.4,0.5,0.6
            c0-0.1,0,0,0.1,0c0,0,0,0,0,0c0,0,0.1,0.2,0,0.1l0.1,0.1c0,0.1-0.2-0.2-0.1,0c0.1,0.1,0.2,0.1,0.3,0.3c-0.1,0,0.1,0.1,0,0.1
            c0,0,0,0,0,0c0,0,0,0,0,0l-0.1-0.1l0,0c0.1,0.1,0.1,0.1,0.2,0.1h0c0,0,0-0.1,0.1,0c0.1,0.1,0.1,0.2,0.1,0.2h0c0,0,0,0,0,0l0,0h0
            c0-0.1,0-0.1,0-0.1c0,0.1,0.2,0.2,0.3,0.2C105.2,31.7,105.2,31.8,105.1,31.5z M88,14.8L88,14.8L88,14.8C88,14.8,88,14.8,88,14.8z
             M95.6,20.5C95.6,20.4,95.5,20.4,95.6,20.5C95.5,20.4,95.5,20.4,95.6,20.5c-0.1,0-0.1-0.1-0.1-0.1l0,0l0,0l0,0c0,0,0-0.1,0-0.1
            l0,0.1l0,0c0,0,0,0,0,0c0,0,0,0,0,0v0l0,0c0,0,0,0,0,0c0,0,0,0-0.1,0l0,0c-0.1,0.1,0-0.1-0.1,0l0,0c-0.1,0-0.1,0.1-0.2,0.2
            c0,0,0-0.1,0,0c0,0-0.1,0.1-0.1,0.2c-0.1,0-0.1,0-0.1,0c0,0,0,0,0,0.1c0,0,0,0.1-0.1,0.1c0,0,0,0,0,0.1l0,0c-0.1,0,0,0.1-0.1,0.2
            l0,0v0c0,0,0,0,0,0l0,0.1l0,0c0,0,0,0,0,0.1c0-0.1,0,0-0.1,0v0c0,0,0,0,0,0.1c0,0,0,0,0,0c0,0,0,0,0,0c0,0,0,0,0,0
            c0,0,0,0.1,0,0.1c0,0,0,0-0.1,0c0,0.1,0,0,0,0.1l0,0l0,0l-0.1,0h0c0,0,0,0,0,0.1l0,0c0,0.1-0.1,0,0,0.1h0c0,0-0.1,0,0,0
            c0,0,0,0,0,0l0,0l0,0.1l0,0l0,0c-0.1-0.1,0,0-0.1,0l0,0c0.1,0.2-0.1,0-0.1,0.1l0-0.1v0.1c0,0,0,0,0,0c0,0,0,0,0,0c0,0,0,0,0-0.1
            c0,0,0,0-0.1,0c0,0,0,0,0,0c0,0,0,0,0,0c0,0,0,0-0.1,0c0,0,0,0,0,0s0,0,0,0l0,0c0,0,0,0,0,0c0,0,0,0,0,0c0-0.1-0.1,0-0.1-0.1
            c0,0,0,0,0,0c0,0,0,0-0.1,0l0,0l-0.1,0c0-0.1-0.1-0.1-0.1-0.1c0,0,0,0,0,0c0,0,0,0,0-0.1l0,0l0,0c0,0-0.1,0-0.1,0c0,0,0-0.1,0-0.1
            c0-0.1,0-0.2-0.1-0.2c0,0,0,0,0,0l0,0l0,0l-0.1,0l0,0c0-0.1-0.1-0.1-0.1-0.1l0,0c-0.1,0,0,0-0.1-0.1h0l0,0l0,0c0,0,0,0,0-0.1
            c0,0-0.1,0-0.1,0c0,0,0,0,0-0.1c0,0,0,0,0-0.1l0,0c0,0,0,0-0.1,0l0,0c-0.1,0,0-0.1-0.1-0.1c0,0,0-0.1,0-0.1
            c-0.1,0-0.1-0.1-0.1-0.2c0.1,0,0,0,0-0.1l0,0c0-0.1,0-0.3-0.1-0.4l0,0h0c0-0.1-0.1-0.3-0.2-0.4c0,0-0.1-0.1-0.1-0.1
            c-0.1-0.1-0.2-0.2-0.2-0.3c0,0,0,0,0,0c0,0,0-0.1-0.1-0.1v0c-0.1,0-0.1-0.1,0-0.1l-0.1,0c0,0,0,0,0,0l0,0l0-0.1
            c0,0-0.1-0.1-0.2-0.1c0,0,0-0.1,0-0.1c0,0-0.2-0.1-0.2-0.1l0,0c0,0-0.1,0-0.1,0c0.1,0,0-0.1,0-0.1c0,0,0,0,0,0.1
            c-0.1,0-0.2,0-0.2,0l0,0c-0.1,0-0.1-0.1-0.2-0.1c-0.1,0-0.1,0-0.1,0.1c-0.1,0,0,0-0.1,0c0,0-0.2,0-0.2,0c0,0.1-0.2,0-0.2,0.1
            l-0.1,0c0,0,0,0.1,0,0.1c-0.1,0-0.1,0-0.1,0l0,0.1c-0.3,0.1-0.5,0.3-0.7,0.5c0,0.1-0.1,0.2-0.2,0.3v0l-0.1,0.1l0.1,0
            c0,0,0,0.1,0,0.1c-0.1,0.1-0.2,0.2-0.2,0.3c0,0.1-0.1,0-0.1,0.1c0,0,0,0,0,0c0,0.1,0,0.1,0,0.2c-0.1-0.1,0,0-0.1,0l0,0
            c0,0-0.1,0-0.1,0l0,0.1l0,0c0,0-0.1,0.1-0.1,0.1c0,0.1-0.1,0.2-0.2,0.2c0,0,0,0,0,0c0,0,0,0,0,0c0,0,0,0.1-0.1,0.1v0
            c0,0,0,0-0.1,0c0,0-0.1,0-0.1-0.1c0,0.1-0.1,0-0.1,0s-0.5,0-1.1,0c-0.4,0-0.9,0-1.2,0c0-0.1,0-0.2,0.1-0.3l0,0
            c0-0.1,0-0.1,0.1-0.2c0.1-0.2,0.2-0.4,0.2-0.5l0,0c0-0.1,0.1,0,0.1-0.2l0,0l0-0.2c0.1,0,0.1-0.3,0.2-0.4c0-0.2,0.1-0.5,0.2-0.7
            c0.1,0,0.2-0.3,0.2-0.5c0.1-0.4,0.3-0.9,0.4-1.3h-0.1l0-0.1c0,0,0,0,0,0c0.1-0.1,0.1-0.3,0.1-0.4c-0.1,0,0,0.1,0,0.2
            c0,0.1-0.1,0,0-0.1l0,0v-0.1h0c0,0,0.1-0.1,0.1-0.1c0-0.2,0.1-0.4,0.1-0.5v0c0,0,0-0.1,0-0.1c0-0.1,0-0.2,0.1-0.2c0,0,0,0,0,0
            c0,0,0,0,0,0c0,0,0,0,0,0c0,0,0.1-0.1,0.1,0c0-0.1-0.1,0-0.1-0.1c0,0,0-0.1,0.1,0c0,0,0.1,0,0,0c0,0,0,0,0,0l0,0h0l0,0
            c0,0,0,0,0,0h0l0,0c0,0,0,0,0,0l0.2,0c0.1,0,0.2,0,0.4,0c0,0-0.1,0-0.1,0c0.3-0.1,0.2,0,0.5,0l-0.1,0c0.1,0,0.1-0.1,0.3,0
            c0,0-0.1,0-0.2,0.1c0.1,0,0.3,0,0.3-0.1c0.1,0,0.2,0,0.2,0c0,0-0.1,0,0-0.1c0.2,0,0.4,0,0.6,0c0,0,0,0,0,0c0.2-0.1,0.1,0,0.4,0
            c0.2,0,0.5,0,0.7,0h0.1c0.4,0,0.8,0,1.1,0.1c0.1-0.1,0.3,0,0.5,0l0,0.1l0.1,0c0,0,0,0,0,0l0,0c0,0,0,0,0,0.1l0,0l0,0
            c0,0.1,0.1,0,0.1,0.2c0,0,0,0-0.1,0c0.1,0.4,0.4,0.4,0.5,0.8c0,0.1,0.1,0.2,0.1,0.2c0.1-0.1-0.1-0.1-0.1-0.2c0,0,0,0,0.1,0
            c0,0,0,0,0,0h0l0.1,0.1c-0.1,0,0.1,0.2,0,0.3c0,0.1,0.1,0.2,0.2,0.4c0,0,0,0.2,0.1,0.3c0.1,0.2,0.2,0.5,0.3,0.8l0,0l0,0.1
            c0,0,0,0,0,0c0,0.1,0.1,0.1,0.1,0.2c0,0,0,0,0-0.1c0-0.1,0.1,0,0.1,0h0l0,0c0,0,0,0.1-0.1,0.1c0.1,0.2,0.2,0.3,0.3,0.6
            c0,0,0.1,0.2,0,0.2c0.1,0.1,0,0,0.1,0c0,0,0,0.1,0,0.1c0,0,0,0,0,0l0,0.1c0,0,0,0,0,0c0.1,0.2,0.1,0.4,0.2,0.5c0,0,0-0.1,0-0.1
            c0.1,0.1,0,0.2,0.1,0.3l0,0c0,0,0.1,0,0.1,0.1c0,0-0.1-0.1-0.1-0.1c0,0.1,0.1,0.2,0.1,0.1c0,0.1,0,0.1,0,0.1c0,0,0-0.1,0,0
            C95.5,20.3,95.5,20.3,95.6,20.5C95.6,20.4,95.6,20.4,95.6,20.5z M98.4,24.6C98.4,24.6,98.4,24.6,98.4,24.6
            C98.4,24.6,98.4,24.6,98.4,24.6C98.4,24.6,98.4,24.6,98.4,24.6z M104.7,31.2L104.7,31.2C104.7,31.2,104.7,31.2,104.7,31.2
            L104.7,31.2z M93.1,15L93.1,15C93.1,15,93.1,15,93.1,15L93.1,15z M77.1,31.4C77.1,31.4,77.1,31.4,77.1,31.4
            C77.2,31.3,77.2,31.3,77.1,31.4C77.2,31.3,77.2,31.3,77.1,31.4C77.2,31.3,77.2,31.3,77.1,31.4C77.2,31.3,77.1,31.3,77.1,31.4
            L77.1,31.4z M93.1,15L93.1,15L93.1,15C93.1,15,93.1,15,93.1,15z M93.1,14.9C93.1,15,93.1,15,93.1,14.9L93.1,14.9L93.1,14.9z"/>
        <path class="st3" d="M103.5,30.1C103.5,30.1,103.5,30.1,103.5,30.1C103.5,30.1,103.5,30.1,103.5,30.1z"/>
        <path class="st3" d="M94.4,21.5C94.3,21.5,94.4,21.5,94.4,21.5C94.4,21.5,94.4,21.5,94.4,21.5L94.4,21.5z"/>
        <path class="st3" d="M92.6,22.2C92.6,22.2,92.6,22.2,92.6,22.2C92.5,22.2,92.5,22.2,92.6,22.2L92.6,22.2z"/>
    </g>
    <path class="st3" d="M93.6,22.9L93.6,22.9C93.5,22.9,93.5,22.9,93.6,22.9L93.6,22.9z"/>
    <path class="st4" d="M92.4,22.1C92.4,22.1,92.4,22.1,92.4,22.1C92.4,22.1,92.4,22.1,92.4,22.1"/>
    <path class="st4" d="M92.1,21.8C92.1,21.8,92.1,21.8,92.1,21.8C92.1,21.8,92.1,21.8,92.1,21.8"/>
    <path class="st4" d="M94.5,22.7C94.5,22.7,94.5,22.7,94.5,22.7C94.5,22.7,94.5,22.7,94.5,22.7"/>
    <polyline class="st4" points="95.3,21 95.3,20.9 95.3,21     "/>
    <path class="st4" d="M95.2,20.9C95.2,20.9,95.2,20.9,95.2,20.9C95.2,21,95.2,20.9,95.2,20.9"/>
    <path class="st4" d="M93.9,22.9C93.9,22.9,93.9,22.9,93.9,22.9C93.9,22.9,93.9,22.9,93.9,22.9"/>
    <polygon class="st3" points="95.2,21 95.2,21 95.2,21     "/>
    <path class="st4" d="M95.3,20.9C95.3,20.9,95.3,21,95.3,20.9C95.3,21,95.3,21,95.3,20.9"/>
    <path class="st4" d="M94.8,21.9L94.8,21.9C94.9,21.9,94.8,21.9,94.8,21.9"/>
    <polygon class="st3" points="95.2,21.1 95.2,21.1 95.3,21.1     "/>
    <path class="st4" d="M95.4,20.9C95.4,20.9,95.4,20.9,95.4,20.9L95.4,20.9C95.4,20.9,95.4,20.9,95.4,20.9"/>
    <path class="st4" d="M95,21.5C95,21.5,95,21.5,95,21.5C95,21.5,95,21.5,95,21.5"/>
</g>
</svg>
