<svg xmlns="http://www.w3.org/2000/svg" viewBox="0 0 110 50" enable-background="new 0 0 110 50"><style type="text/css">.st0{fill-rule:evenodd;clip-rule:evenodd;fill:#221815;} .st1{fill:#004199;} .st2{fill:#221815;}</style><path class="st0" d="M57.5 36.2c.2.3.5.5.8.8l.4.4v.3c.4.4.7 1.2 1 1.8l.1.1c0 .2.2.3.3.5 0 .2.2.3.3.5l.3.5c0 .2.2.3.3.5 0 .1.2.2.1.4h-4.8c-.6-.9-1-1.9-1.6-2.9l-.1-.3c0-.1-.1-.1-.1-.1-.1-.1-.1-.3-.1-.4 0-.1-.2-.2-.3-.3l-.1-.4-.1-.1c0-.1-.3-.4-.4-.5-.2-.2-.5-.2-.8-.3-.2.2-.1.8-.1 1.3v3.9h-4.6c-.2-1-.1-2.1-.1-3.1v-10.1c1.7.1 5.4-.2 7.9 0 .6 0 1.1.1 1.7.3.3.1.5.2.8.4.1.1.3.1.4.1.2.2.3.5.5.8 0 0 .2.1.3.1v.3c0 .1.2.2.3.3v.4c.1.4.2 1.9 0 2.6 0 0-.1 0-.1.1 0 .2-.2.3-.4.5l-.1.4c-.4.6-1.2 1-1.7 1.2m-5.1-2.2c.9 0 1.9 0 2.5-.1.3-.1.6-.5.7-.9 0-.3-.2-.4-.3-.8-.7-.3-1.8-.3-2.9-.3v2.1zm19.9.9c.1.3.4.3.5.4.1.1.3.1.4.1.2.2.7.8.9 1.2v.3c.3.2.3 1.7.3 2.2 0 0-.1 0-.1.1 0 .3 0 .4-.1.7l-.1.1c0 .2-.2.2-.3.3v.3l-.4.3-.3.4c-.1.1-.3.1-.4.1-.1 0-.2.2-.3.3h-.3c-.3.3-1.6.3-2.4.4l-1.2.1c-1.9.1-4.6-.1-6.4 0v-13.3c2.1.2 6.3-.3 8.5 0 0 0 0 .1.1.1.3 0 .6 0 .9.1l.1.1c.2 0 1.1.7 1.3.9v.3c.1.1.2.1.3.3.2.4.4.9.4 1.7 0 .5-.2 1.1-.4 1.4-.1.2-.2.2-.4.4v.3c0 .2-.3.3-.6.4m-5.7-3v2c1 0 2.3.2 2.8-.4.1-.5.1-.7 0-1.2-.6-.4-1.7-.4-2.8-.4m0 7c1.1-.1 2.3.1 2.9-.1 0 0 .1-.2.1-.3.1-.1.2-.1.3-.3.1-.1.1-.4.1-.5-.1-1.1-1.8-.9-3.4-.9v2.1zm17.7-10l.8 2.2s.1 0 .1.1l.1.7c0 .1.2.2.3.3.1.2.1.4.1.5.1.3.2.8.4 1.2l.7 1.6c.1.3.1.6.3.9l.1.1v.1c.1.1.1.2.1.4 0 .1.1.1.1.1.2.4.2.8.4 1.3 0 0 .1 0 .1.1 0 .2 0 .3.1.5.3.7.9 2 1 3h-4.5c-.3-.6-.5-1.3-.7-2.1h-2.4c-.7 0-1.3-.1-1.7 0-.5.5-.4 1.5-.8 2.1h-4.5c.3-1.1.8-2.2 1.2-3.3.1-.2.2-.4.3-.7v-.3c0-.1.2-.2.3-.3v-.3c0-.2.3-.7.4-1l.3-.8.1-.1v-.1c.1-.1.1-.2.1-.4l.4-.9c.1-.2.2-.4.3-.7l.1-.7c0-.1.2-.2.3-.3.1-.2.1-.4.1-.5.1-.4.3-1 .5-1.6 0 0 .1 0 .1-.1.1-.3.1-.7.4-.9v-.4h5zm-2.6 5.3c-.4.9-.6 1.8-.8 2.6h2.1c-.3-1.1-.7-2.1-.9-3.3-.4 0-.3.5-.4.7m17.2 1v-6.3h4.2v13.2h-3.9c-.2-.2-.3-.4-.5-.7-.1-.1-.2-.2-.3-.4-.1-.1-.2-.2-.3-.4-.1-.1-.2-.2-.3-.4-.1-.1-.2-.2-.3-.4-.2-.3-.4-.6-.7-.9-.1-.1-.3-.3-.3-.4 0-.2-.2-.2-.3-.3v-.3s-.2-.1-.3-.1v-.3s-.2-.1-.3-.1v-.3s-.2-.1-.3-.1v-.3s-.2-.1-.3-.1v-.3s-.2-.1-.3-.1c-.1-.2-.1-.4-.4-.5v3.3c0 1 .1 2.1-.1 3h-4.1v-13.1h3.8c.4 0 .5.4.7.8.4.2.5.7.8 1 .1.2.2.3.4.5 0 .1.1.1.1.1.1.1.1.3.1.4 0 0 .2.1.3.1.1.2.1.3.3.5l.3.4.3.3v.3s.2.1.3.1c.1.1.1.3.1.4 0 0 .2.1.3.1.1.2.1.3.3.5.3.4.4.7.7.8m-39.3 9.6c-.2.3-.2.7-.7.7.2-.4.2-.7.7-.7m.2 0c.5 0 .1.8-.3.7 0-.5.4-.3.3-.7m49.5 0c-.1.3-.2.6-.5.7.1-.4.1-.8.5-.7m.7 0c-.2.3-.2.7-.7.7.2-.4.3-.7.7-.7m-81.9 1c-.5 0-.2-.6-.7-.7-.6.3-.6 1.7 0 2 .4 0 .1-.8.7-.7-.1.4-.2.8-.5.9-1.3 0-1.2-2.6.1-2.5.2.4.5.5.4 1m12-.9c.4-.2.4.6 0 .4v-.4zm6 0c.2 0 .2 0 .3.1v2c.1.4 1.2-.2 1 .4h-1.3v-2.5zm2.1 0c.5 0-.2.8 0 0m3.2 0c.1 0 .1.1.3.1 0 .1-.1.1-.1.3-.1 0-.1-.1-.3-.1 0-.2.1-.2.1-.3m5.3 0c.5 0 .3.8.3 1.2v1.3c-.4-.2-.4 0-.9 0-.3-.2-.7-1.1-.3-1.4.2-.2.4-.4.9-.1v-1zm-.7 2.2c.7.1.7-.7.5-1.2h-.5c-.1.4-.1.8 0 1.2m4.5-2.2c.5 0 .9 0 1.2.1.1.3.3.8-.1.9.3.2.3.7.3 1.2-.3.2-.7.3-1.3.3v-2.5zm.4 1c.5 0 .7-.2.7-.7-.2-.2-.5-.1-.8-.1-.1.4-.1.7.1.8m-.2 1.2h.7c.1-.2.1-.5.1-.8-.2-.2-.5-.1-.8-.1v.9zm5.2-2.2c.2 0 .2 0 .3.1.3.7.4 1.6.7 2.4l-.8-.7c-.6-.1-.1.7-.7.7-.1-1 .4-1.6.5-2.5m0 1.6c.2 0 .3-.1.4-.3l-.3-.5c-.2.1-.2.4-.1.8m4.8-1.6c.6 0-.1.8 0 0m7.2.9c-.5.1-.1-.7-.5-.7-.8 0-.6 1.6-.3 2 .6.1.3-.7.8-.7.1.6-.2.8-.7.9-.2.1-.4-.2-.5-.4v-.1h-.1c-.1-.3 0-1.2.1-1.4.1-.1.1-.3.3-.4.1 0 .2 0 .1-.1.6 0 .8.3.8.9m.3-.9c.5-.1.2.6.3.9.3 0 .5-.2.9-.1.1.2.1.5.1.9 0 .3.1.9-.3.8 0-.6.1-1.3-.3-1.6-.6.1-.6.8-.5 1.6-.5 0-.2-.8-.3-1.2.1-.5.1-1 .1-1.3m3.8 0c.2 0 .2 0 .3.1v1.3c0 .4.2 1-.3 1v-2.4zm1.5 0c.2 0 .2 0 .3.1v1.3c0 .4.2 1-.3 1v-2.4zm10.8 0c.5-.1.2.6.3.9.3-.1.7-.3.9 0 .1.2 0 .5 0 .8l.1.4s-.2.1 0 .1c-.1.2-.2.3-.4.3-.1-.7.3-1.3-.1-1.6-.6.1-.5.9-.5 1.6-.5 0-.3-.8-.3-1.2v-1.3m5.4 0c.2 0 .2 0 .3.1v1.3c0 .4.2 1-.3 1v-2.4zm1.5 0c.4-.2.4.6 0 .4v-.4zm3.3 0c.2 0 .2.1.3.3-.1 0-.1.1-.1.1-.2 0-.2-.3-.2-.4m-66.2.3c.5-.1 0 .8.8.5 0 .2-.4.1-.5.3v1c0 .4.9-.2.7.4-.3 0-.7 0-.9-.1-.1-.5.3-1.5-.4-1.4.1-.3.5-.2.3-.7m14.6 0c.4-.3.1.4.3.5 0 0 1.1.1.3.1-.5 0-.2.5-.3 1.2 0 .3.5.1.7.1 0 .4-.7.3-.9.1-.1-.5.3-1.5-.4-1.4.1-.2.5-.1.3-.6m16 0c.4-.1.2.4.4.5h.3c.7.1-.3.1-.4.3v.9l.7.5h-.9c-.3-.4.1-1.5-.3-1.6h-.3c.1-.2.7 0 .5-.6m24.1 0h.4c.1.2-.1.2-.1.3l.4.4h-.3c-.2.2.2.7-.1 1l.7.5c-1 .2-1-.6-.9-1.4.1-.2-.4-.1-.4-.1-.2-.3.6-.1.3-.7m12.9 0c.5-.1 0 .8.8.5 0 .2-.4.1-.5.3v1c0 .3.5.1.7.1 0 .4-.7.3-.9.1-.1-.5.3-1.5-.4-1.4.1-.2.5-.1.3-.6m-77.1.5c1.4-.1 1 1.9.1 1.7-.6-.1-.8-1.3-.1-1.7m0 1.4c.7.1.7-.7.5-1.2h-.5c-.2.3-.2 1 0 1.2m1.3-1.4c.2 0 .2.1.3.3.2-.1.2-.4.7-.3-.1.4-.4.4-.7.7v1c-.6 0-.2-1.2-.3-1.7m1.4 0c.4.2.5-.1 1 0 .6.5.2 2.1-.7 1.6-.3 0 .1.7-.4.5v-2.1zm.4.2c0 .1 0 .3-.1.3-.1.6.1 1 .7.9.2-.4.3-1.2-.3-1.3 0 .1-.1.2-.3.1m1.7-.2c.9-.1 1 .8.9 1.2h-.1c-.1.4-.2.6-.7.5-.6-.1-.8-1.3-.1-1.7m0 1.4c.7.1.7-.7.5-1.2h-.5c-.2.3-.2 1 0 1.2m1.3-1.4c.2 0 .2.1.3.3.3-.1.2-.4.7-.3 0 .3-.3.3-.5.4 0 .2 0 .2-.1.3v1c-.7 0-.2-1.2-.4-1.7m2.7.1c.1.4-.2 1.2.1 1.4-.1.3-.2 0-.4 0s-.4.2-.7.1c-.1 0-.2-.3-.3-.4 0-.6.7-.5.9-.9 0-.1-.4-.2-.5-.1 0 0 0 .4-.3.3-.1-.7.9-.6 1.2-.4m-1 1.2c.2 0 .3.2.5.1.1-.1.3-.6 0-.7 0 .3-.6.1-.5.6m3.5-1.3c.2 0 .2 0 .3.1v1.6c-.6 0-.2-1.2-.3-1.7m1.4 0h.8c.4.4.4 1.6-.3 1.7-.9.1-.9-1.2-.5-1.7m.5 1.4c.3-.1.4-.9.1-1.2h-.5c-.2.3-.3 1.4.4 1.2m.8-1.4c.4.2.6-.1 1.2 0 .1.2.1.5.1.9 0 .3.1.9-.3.8v-1.4c-.9-.2-.8.7-.8 1.4-.4-.2-.1-1.2-.2-1.7m5.4 0c.2 0 .2 0 .3.1v1.6c-.6 0-.2-1.2-.3-1.7m1 0c.3-.1.7.1.9.1 0 0 .2-.1.3-.1.1 0 .1.1.3.1v.9c0 .3.2.8-.3.7v-1.4c-.7-.1-.3.9-.4 1.4-.6 0-.1-1-.3-1.4-.6 0-.1 1-.3 1.4-.5 0-.1-.9-.3-1.3v-.4zm2.1 0h.4c-.1.7-.1.9 0 1.4-.2 0 .1.2-.1.3-.6 0-.2-1.2-.3-1.7m3.8 0c.1.3.3.4.3.8-.3.3-.9-.1-1 .1 0 .2.2.3.1.5.7.2.5-.7.9-.3-.1.3-.3.5-.7.5-.9 0-.8-2 .4-1.6m-.8.6c.3 0 .8.1.8-.3-.2-.1-.4-.2-.7-.1.1.2 0 .3-.1.4m9.1.3c-.3 0-.7 0-.9-.1 0 .3 0 .5.1.7.4.1.5-.2.7-.4.4.4-.2.8-.8.7-.5-.5-.6-1.9.7-1.7.1.1.3.3.2.8m-.9-.5c-.1.4.4.2.7.3 0-.5-.6-.5-.7-.3m5.7.1l-.7-.3c-.4.2-.4 1 0 1.2.6.2.2-.6.7-.5.1.7-.3.9-.9.8-.1-.1-.2-.2-.3-.4 0 0-.1-.2-.1-.1-.2-.9.9-1.9 1.3-.7m2.5-.5c.2 0 .2 0 .3.1v1.6c-.6 0-.2-1.2-.3-1.7m1.1 0c.5.1.4.7.5 1.2.6-.1.1-1.2.8-1.2-.2.6-.4 1.1-.5 1.7-.7-.1-.6-1.2-.8-1.7m2.8.9c-.2-.2-.4.1-.9 0-.1.3.1.3.1.5.4.1.5-.2.7-.4.4.3-.1.8-.7.7 0-.1-.2-.1-.3-.1-.2-.6-.3-1.9.8-1.6.2.2.4.4.3.9m-.9-.3h.7c.1-.7-.7-.5-.7 0m7.1-.6c.3.6.1 1.1.3 1.7-.4-.2-1.1.3-1.3-.4 0-.6.8-.5.9-.9 0-.1-.4-.2-.5-.1 0 0 0 .4-.3.3 0-.6.4-.7.9-.6m-.7 1.4c.5.1.9-.5.4-.7-.1.3-.5.2-.4.7m5.5-1.4c.1.3.3.4.3.8-.2.2-.7.1-1 .1l.3.5c.4.1.5-.2.7-.4.4.4-.2.8-.8.7-.7-.5-.7-2 .5-1.7m-.6.6h.7c0-.5-.8-.7-.7 0m1.3-.6c.3.2.8-.2 1.2.1v.9c0 .3.2.8-.3.7v-1.4c-.9-.2-.6.8-.7 1.4-.5 0-.1-.9-.3-1.3v-.4zm1.8 0c.6-.1.7.2 1 0-.4.4.1 1.2-1 1 .1.4.8.2 1 .4.2.8-1 .8-1.3.4.2-.4-.1-.7.3-.9-.2-.3 0-.6 0-.9m.2.8c.2 0 .4 0 .5-.1 0-.3-.2-.4-.4-.5-.1.1-.2.3-.1.6m.6.7h-.8c0 .5.9.6.8 0m1.6-1.5c.1.3.3.4.3.9h-.9c-.1.3.1.3.1.5.6.2.3-.4.8-.4 0 .5-.3.8-.9.7-.6-.5-.6-2 .6-1.7m-.7.6h.7c0-.5-.8-.7-.7 0m7.4.3c-.2-.2-.4.1-.9 0-.1.3.1.3.1.5.4.1.5-.2.7-.4.4.3-.1.8-.7.7 0-.1-.2-.1-.3-.1-.2-.6-.3-1.1.1-1.6h.7c.2.2.3.4.3.9m-1-.3h.7c0-.5-.7-.7-.7 0m5-.6c.2 0 .2 0 .3.1v1.6c-.6 0-.1-1.2-.3-1.7m.9 0c.7 0 .9.2 1.4 0 .1.1.1.5.1.9 0 .3.2.9-.3.8v-1.4c-.7-.1-.3.9-.4 1.4-.6 0-.1-1-.3-1.4-.3 0-.5.2-.4.5 0 0 .2.9-.3.9v-1.7zm2.4 0c.2 0 .2 0 .3.1v1.6c-.6 0-.2-1.2-.3-1.7m3.8.2c0 .6-.3-.3-.8 0 0 .7 1 .4.9 1-.2.2-.4.5-.9.4-.1-.3-.4-.2-.3-.7.5-.2.1.4.4.4.3.1.3-.1.5-.1-.1-.4-.6-.5-.9-.7v-.5c.2-.1 1.1-.2 1.1.2m-33.1 1.2c.5-.1.2.4.1.5-.2 0-.1-.3-.1-.5"/><path class="st1" d="M53.4 13.6l-.3-.3c-.2-.1-.4-.3-.5-.4l-.5-.4c-.3 0-.3-.4-.5-.4s-.6-.5-.7-.5l-.3-.3c-.2-.1-.4-.2-.5-.3-.1 0-.1-.2-.1-.3-.1-.1-.3-.1-.4-.1v-.1h-.3c-.2-.1-.3-.4-.4-.5-.1-.1-.3-.1-.4-.1l-.4-.4c-.2-.1-.4-.3-.5-.4-.6-.4-1.2-1-1.7-1.3-.3-.2-.4-.3-.5-.4-.1-.1-.3-.3-.4-.3-.3 0-.3-.3-.4-.4-.2-.1-.4-.1-.5-.3-.1 0-.1-.2-.1-.3l-.4-.1c-.1 0-.1-.2-.1-.3l-.4-.1c-.2-.2-.3-.5-.5-.5l-.4-.4h-.3l-.3-.3c-.2-.1-.5-.4-.6-.5-.1-.1-.3-.1-.4-.1-.1-.1-.2-.3-.4-.4-.1-.1-.2-.1-.3-.1-.1-.1-.3-.3-.4-.3-.2 0-.1-.1-.1-.1l-.8-.7h-.3c-.3.3-.6.7-.8.9h-.3l-.3.4-.4.4c-1 1.1-2.4 2.6-3.5 3.5v.3c-.5.5-1.9.3-2.9.3h-14.9c-.8 0-1.9-.2-2.5 0-.5.1-.7.7-1.3 1.2-.2.2-.5.3-.8.5l-.7.7c-1 .9-1.9 1.6-2.8 2.4-.5.4-.9.8-1.3 1.2-.5.4-1 .8-1.4 1.2l-.7.7c-.2.2-.5.4-.7.7v.3s-.2.1-.3.1l-.5.5v.3c-.1.1-.3.1-.4.3-.1.2-.1.4-.1.5h-.1v.3h-.1v.3h-.1v.3h-.1v.3h-.1v.3c0 .1-.2.1-.3.1l-.1.7c-.1.2-.1.2-.3.3-.1.1-.1.8-.1.9 0 0-.2.1-.3.1v.4c-.2 1.4 0 3 0 4.5v9.2c0 1.5-.2 3.2 0 4.6l.1.3c0 .1.1.1.1.1.1.2.1.5.1.7 0 .1.1.1.1.1l.3.9s.2.1.3.1v.3l.3.3c.3.4.6.7.9 1 .5.5.9 1.1 1.2 1.3.1.1.3.1.4.1l.1.1.4.3c.3.2.5.3.7.4.2.1.3.1.5.1 0 0 0 .1.1.1.3-.4.8-.2 1-.1h.1c.1 0 .1.1.1.1.4.1 1 .1 1.4.1 1.4.2 3.1.2 4.6.1.5 0 1.2-.2 1.6-.3h.4c.1.1.1 0 .1 0 .8-.1 1.5-.1 2.2-.3.4-.1 1.1-.4 1.2-.5h.3c.3-.1.8-.3.9-.4h.3v-.1h.3c.6-.3 1.5-.7 1.8-1h.3l.4-.4c.1 0 .4-.1.4-.1.1 0 .1-.1.1-.1.3-.2.4-.3.5-.4h.3c.1-.1.1-.3.3-.3.2 0 .1-.1.1-.1l1.3-.8c.3-.2.5-.5.8-.5.2 0 .1-.1.1-.1.3-.2.6-.4.9-.7l.4-.4c.1-.1.2-.1.3-.3h.3l.8-.8c.3-.2.6-.4.9-.7.3-.2.5-.5.8-.8.3-.2.5-.5.8-.8.2-.1.4-.1.5-.3l.3-.4.1-.9v-7h4.3c.1.9-.1 1.7-.1 2.5 0 .3.1.6 0 .8 0 .1 0 .1-.1.1l.2.1c.2-.6 1.4-1.5 2.1-2.2 1.4-1.4 2.1-2.2 3.3-3.3.3-.3.8-.7 1.2-1l.1-.4.4-.1.5-.7c1.9-1.9 3.4-3.3 5.5-5.5.6-.6 1.4-1.3 2.2-2.2l.5-.5.4-.4v-.1h.3c.5-.5.9-1 .9-1.3 0-.4-.7-.8-1-1m-22-4.6c-.2.2-.3.4-.5.7-1 1.3-2.5 2.5-3.8 3.8l-2.2 2.2c-1.8 1.8-3.6 3.7-5.5 5.5-.7.7-1.4 1.4-2.2 2.1l-.3.3-.4.1c-.2.2-.3.4-.5.5-.1.1-.2.1-.3.1-.1.1-.2.3-.4.4-.1.1-.3.1-.4.1l-.3.3c-.1.1-.3.1-.4.1l-.3.3c-.1.1-.3.1-.4.1-.1 0-.2.2-.3.3-.2.1-.5.1-.8.3-.2.1-.7.3-1 .4l-.1.1h-.1c-.2.1-.3.1-.5.1-.1 0-.5.2-.9.3-.1 0-.4.1-.8.1-.3 0-.5.1-1 .1-.1 0-.5-.1-.5 0-.1.1-.1 0-.5 0-.8-.1-2.1.1-2.9-.1 0 0 0-.1-.1-.1l-.5-.3c-.5 0-1-.8-1.3-1.2l-.4-.5-.3-.3v-.3h-.1c-.1-.2-.1-.7-.1-1.2v-.3h-.1c-.2-.4-.2-1-.2-1.4l.1-.8c0-.1.2-.2.3-.3l.1-.5.1-.4c.1-.1.3-.4.4-.7l.1-.4c0-.1.2-.1.3-.1.1-.1.1-.3.1-.4l.1-.1.4-.5.4-.5s1-1.3 1.3-1.3c.2 0 0-.2.1-.3l.4-.1c.3-.3.6-.8 1-1.2.1-.1.3-.1.4-.1l.8-.8c.2-.2.5-.3.5-.5.9-.5 1.6-1.2 2.5-2 .2-.2.4-.3.7-.5.4-.3.7-.6 1.2-.9.1-.1.1-.2.3-.3.4-.2 1.8-.1 2.8-.1h15.8c.4-.1.2 0 .2.2"/><path class="st2" d="M45.3 28.9c-1.4.1-3.2-.2-4.5.1v6.7c0 .8.1 1.5-.1 2.2-.7 1.4-2.8 1.1-3.4.2-.3-.6-.3-1.5-.3-2.6 0-1.2-.2-2.2 0-3v-.1l-.2-.1c-.2.4-.6.7-1 1l-2.1 2.1-.5.5c-.2.2-.4.4-.7.4v-.5l-.1.9c.1-.1.1 0 .1.1.2.9.3 2.2.7 2.5v.3h.1v.3c.1.1.3.1.3.3v.1h.1c.3.4.7.7.9.9l.3.3h.3s.1.2.1.3c.1.1.4.1.5.1 1.2.3 3.4.6 4.8.4v-.1h.3c.5-.1 1.2-.2 1.3-.4h.3v-.1h.3l.3-.3c.5-.3.9-.8 1.2-1.2.2-.2.2-.3.3-.5 0 0 .2-.1.3-.1v-.4l.3-.3v-.4c0-.1.1-.1.1-.1v-.5c0-.1.1-.1.1-.1.2-2.6-.3-5.9-.1-8.9"/></svg>